<svg width="530" height="530" viewBox="0 0 530 530" fill="none" xmlns="http://www.w3.org/2000/svg">
<rect width="530" height="530" rx="40" fill="white"/>
<path d="M42 38H492V488H42V38Z" fill="#C0DE5C"/>
<path d="M82 77H452V447H82V77Z" fill="white"/>
<path d="M240.83 294.455C240.778 294.023 240.571 293.688 240.207 293.449C239.844 293.21 239.398 293.091 238.869 293.091C238.483 293.091 238.145 293.153 237.855 293.278C237.568 293.403 237.344 293.575 237.182 293.794C237.023 294.013 236.943 294.261 236.943 294.54C236.943 294.773 236.999 294.973 237.109 295.141C237.223 295.305 237.368 295.443 237.544 295.554C237.72 295.662 237.905 295.751 238.098 295.822C238.291 295.891 238.469 295.946 238.631 295.989L239.517 296.227C239.744 296.287 239.997 296.369 240.276 296.474C240.557 296.58 240.825 296.723 241.081 296.905C241.339 297.084 241.553 297.314 241.72 297.595C241.888 297.876 241.972 298.222 241.972 298.631C241.972 299.102 241.848 299.528 241.601 299.909C241.357 300.29 240.999 300.592 240.527 300.817C240.058 301.041 239.489 301.153 238.818 301.153C238.193 301.153 237.652 301.053 237.195 300.851C236.74 300.649 236.382 300.368 236.121 300.007C235.862 299.646 235.716 299.227 235.682 298.75H236.773C236.801 299.08 236.912 299.352 237.105 299.568C237.301 299.781 237.548 299.94 237.847 300.045C238.148 300.148 238.472 300.199 238.818 300.199C239.222 300.199 239.584 300.134 239.905 300.003C240.226 299.869 240.48 299.685 240.668 299.449C240.855 299.21 240.949 298.932 240.949 298.614C240.949 298.324 240.868 298.088 240.706 297.906C240.544 297.724 240.331 297.577 240.067 297.463C239.803 297.349 239.517 297.25 239.21 297.165L238.136 296.858C237.455 296.662 236.915 296.382 236.517 296.018C236.119 295.655 235.92 295.179 235.92 294.591C235.92 294.102 236.053 293.676 236.317 293.312C236.584 292.946 236.942 292.662 237.391 292.46C237.842 292.256 238.347 292.153 238.903 292.153C239.466 292.153 239.966 292.254 240.403 292.456C240.841 292.655 241.188 292.928 241.443 293.274C241.702 293.621 241.838 294.014 241.852 294.455H240.83Z" fill="white"/>
<path d="M123.561 363.878C126.28 275.857 150.528 223.901 231.069 172.148C269.109 151.752 305.592 150.422 347.878 164.383L391.802 87.1323L410.53 120.512L379 173.5C427.687 189.968 414.103 245.766 394.428 313.264C333.711 275.829 308.789 281.205 313.69 361.156C250.293 399.674 195.926 388.198 123.561 363.878Z" fill="#C0DE5C"/>
<path d="M222.258 285.215L161.165 358.481L237.85 292.522L256.753 324.789L251.706 280.849L304.5 244.5L336.699 279.791L316.085 230.544L359.484 182L285.015 225.074L225.793 207.665L275.7 240.047L229.602 272.623L171.175 278.85L222.258 285.215Z" fill="#EBE14E" stroke="#EBE14E"/>
<path d="M126.245 413.672C126.268 413.83 126.279 413.976 126.279 414.112C126.279 414.248 126.279 414.383 126.279 414.519V415.908L126.076 433.493V433.832C126.076 433.967 126.042 434.17 125.974 434.441C125.952 434.554 125.918 434.679 125.872 434.814C125.827 434.927 125.782 435.051 125.737 435.187C125.624 435.458 125.466 435.661 125.263 435.797C125.082 435.977 124.788 436.102 124.382 436.169C123.749 436.305 123.173 436.248 122.654 436C122.36 435.819 122.157 435.593 122.044 435.322C121.999 435.277 121.953 435.209 121.908 435.119C121.908 435.074 121.886 435.006 121.84 434.916C121.795 434.803 121.761 434.69 121.739 434.577C121.716 434.441 121.694 434.306 121.671 434.17C121.671 434.057 121.66 433.944 121.637 433.832C121.637 433.719 121.626 433.606 121.603 433.493C121.558 433.38 121.536 433.289 121.536 433.222C121.536 433.131 121.536 433.03 121.536 432.917C121.581 432.826 121.603 432.657 121.603 432.408L121.637 429.732L121.671 425.463H119.841L112.963 425.496L112.896 433.493V433.832C112.896 433.967 112.862 434.17 112.794 434.441C112.771 434.554 112.737 434.679 112.692 434.814C112.647 434.927 112.602 435.051 112.557 435.187C112.444 435.458 112.286 435.661 112.082 435.797C111.902 435.977 111.608 436.102 111.201 436.169C110.569 436.305 109.993 436.248 109.473 436C109.248 435.864 109.033 435.639 108.83 435.322C108.784 435.232 108.762 435.164 108.762 435.119L108.66 434.916C108.615 434.803 108.581 434.69 108.559 434.577C108.536 434.441 108.513 434.306 108.491 434.17C108.491 434.057 108.48 433.944 108.457 433.832C108.434 433.719 108.412 433.606 108.389 433.493C108.367 433.312 108.367 433.12 108.389 432.917V432.408L108.423 429.732L108.491 424.751C108.513 424.028 108.525 423.283 108.525 422.515C108.525 421.747 108.525 420.956 108.525 420.143C108.502 419.33 108.491 418.607 108.491 417.975C108.513 417.342 108.547 416.631 108.592 415.84V415.704C108.615 415.479 108.626 415.253 108.626 415.027C108.626 414.778 108.638 414.53 108.66 414.281C108.683 414.056 108.717 413.841 108.762 413.638C108.83 413.412 108.92 413.186 109.033 412.96C109.101 412.779 109.191 412.632 109.304 412.52C109.417 412.384 109.552 412.26 109.711 412.147C110.072 411.966 110.433 411.876 110.795 411.876C110.976 411.876 111.134 411.887 111.269 411.91C111.405 411.91 111.54 411.921 111.676 411.944C111.947 411.966 112.207 412.102 112.455 412.35C112.636 412.508 112.76 412.689 112.828 412.892C112.941 413.186 113.008 413.446 113.031 413.672C113.054 413.83 113.065 413.976 113.065 414.112C113.065 414.248 113.065 414.383 113.065 414.519V415.908L112.997 421.498C113.178 421.498 113.381 421.498 113.607 421.498C113.856 421.498 114.138 421.487 114.454 421.464C115.629 421.464 116.792 421.476 117.944 421.498C119.119 421.521 120.35 421.532 121.637 421.532H121.671C121.671 420.516 121.671 419.544 121.671 418.618C121.694 417.692 121.728 416.721 121.773 415.704C121.773 415.479 121.773 415.253 121.773 415.027C121.795 414.778 121.818 414.53 121.84 414.281C121.863 414.056 121.897 413.841 121.942 413.638C122.01 413.412 122.1 413.186 122.213 412.96C122.258 412.779 122.337 412.632 122.45 412.52C122.586 412.384 122.744 412.26 122.925 412.147C123.241 411.966 123.591 411.876 123.975 411.876C124.156 411.876 124.314 411.887 124.449 411.91C124.608 411.91 124.743 411.921 124.856 411.944C125.172 411.989 125.432 412.124 125.635 412.35C125.816 412.463 125.94 412.644 126.008 412.892C126.053 413.028 126.087 413.163 126.11 413.299C126.155 413.412 126.2 413.536 126.245 413.672ZM132.967 421.736C133.644 421.397 134.356 421.16 135.101 421.024C135.847 420.866 136.581 420.832 137.304 420.922C138.049 420.99 138.76 421.182 139.438 421.498C140.116 421.792 140.748 422.221 141.336 422.786C141.923 423.373 142.375 424.017 142.691 424.717C143.007 425.417 143.233 426.197 143.368 427.055C143.459 427.642 143.606 428.184 143.809 428.681C144.012 429.178 144.227 429.675 144.453 430.172C144.701 430.669 144.927 431.166 145.13 431.663C145.356 432.16 145.537 432.68 145.672 433.222C145.785 433.741 145.74 434.249 145.537 434.746C145.356 435.221 144.972 435.514 144.385 435.627C144.046 435.695 143.719 435.672 143.402 435.56C143.109 435.424 142.838 435.243 142.589 435.017C142.341 434.769 142.115 434.509 141.912 434.238C141.731 433.944 141.561 433.673 141.403 433.425C140.884 434.103 140.319 434.633 139.709 435.017C139.099 435.379 138.365 435.616 137.507 435.729C136.784 435.819 136.095 435.842 135.44 435.797C134.785 435.752 134.085 435.627 133.339 435.424C132.368 435.176 131.566 434.746 130.934 434.136C130.324 433.504 129.849 432.781 129.511 431.968C129.194 431.132 129.025 430.24 129.002 429.291C128.98 428.343 129.093 427.405 129.341 426.479C129.657 425.259 130.132 424.265 130.764 423.497C131.397 422.729 132.131 422.142 132.967 421.736ZM133.814 425.7C133.497 426.016 133.249 426.389 133.068 426.818C132.888 427.247 132.775 427.699 132.729 428.173C132.707 428.648 132.752 429.122 132.865 429.596C132.978 430.071 133.159 430.488 133.407 430.85C133.633 431.166 134.017 431.437 134.559 431.663C135.101 431.866 135.666 431.991 136.253 432.036C136.931 432.081 137.518 431.9 138.015 431.494C138.535 431.087 138.919 430.579 139.167 429.969C139.438 429.336 139.562 428.67 139.54 427.97C139.517 427.247 139.325 426.592 138.964 426.005C138.693 425.576 138.331 425.259 137.88 425.056C137.45 424.853 136.987 424.751 136.49 424.751C135.993 424.728 135.496 424.808 135 424.988C134.525 425.146 134.13 425.384 133.814 425.7ZM161.096 422.955C161.276 423.272 161.367 423.61 161.367 423.972C161.389 424.333 161.31 424.672 161.129 424.988C160.926 425.395 160.633 425.677 160.249 425.835C159.887 425.971 159.481 425.982 159.029 425.869C158.825 425.824 158.645 425.745 158.487 425.632C158.329 425.519 158.159 425.406 157.978 425.293C157.82 425.158 157.628 425.033 157.402 424.92C157.199 424.808 156.928 424.728 156.589 424.683C156.25 424.638 155.878 424.638 155.471 424.683C155.087 424.728 154.737 424.819 154.421 424.954C153.924 425.203 153.529 425.587 153.235 426.106C152.941 426.603 152.749 427.145 152.659 427.733C152.569 428.297 152.58 428.873 152.693 429.461C152.828 430.048 153.077 430.545 153.438 430.952C153.709 431.268 154.059 431.528 154.489 431.731C154.94 431.934 155.369 432.058 155.776 432.104C156.16 432.149 156.544 432.149 156.928 432.104C157.312 432.036 157.685 431.945 158.046 431.832C158.317 431.72 158.622 431.573 158.961 431.392C159.3 431.189 159.627 431.064 159.944 431.019C160.35 431.019 160.666 431.132 160.892 431.358C161.118 431.561 161.276 431.821 161.367 432.137C161.457 432.431 161.468 432.747 161.401 433.086C161.355 433.425 161.231 433.719 161.028 433.967C160.757 434.306 160.373 434.633 159.876 434.95C159.379 435.243 158.905 435.458 158.453 435.593C157.911 435.774 157.301 435.876 156.623 435.898C155.968 435.921 155.347 435.898 154.76 435.831C154.489 435.785 154.206 435.729 153.913 435.661C153.619 435.593 153.337 435.514 153.065 435.424C152.072 435.063 151.236 434.554 150.558 433.899C149.903 433.222 149.395 432.465 149.033 431.629C148.695 430.793 148.503 429.901 148.457 428.952C148.412 428.004 148.525 427.066 148.796 426.14C149.045 425.259 149.35 424.514 149.711 423.904C150.095 423.294 150.536 422.797 151.033 422.413C151.552 422.007 152.128 421.69 152.761 421.464C153.393 421.216 154.093 421.001 154.861 420.821C155.652 420.663 156.488 420.663 157.369 420.821C158.249 420.979 159.04 421.272 159.74 421.702C160.282 421.995 160.734 422.413 161.096 422.955ZM170.885 428.207C171.382 428.727 171.743 429.111 171.969 429.359C172.217 429.585 172.387 429.754 172.477 429.867C172.59 429.98 172.669 430.048 172.714 430.071C172.759 430.093 172.839 430.161 172.951 430.274C173.064 430.387 173.245 430.568 173.494 430.816C173.742 431.042 174.115 431.415 174.612 431.934C175.018 432.341 175.346 432.815 175.594 433.357C175.865 433.877 175.843 434.441 175.527 435.051C175.346 435.368 175.143 435.593 174.917 435.729C174.691 435.842 174.442 435.887 174.171 435.864C173.923 435.842 173.652 435.763 173.358 435.627C173.087 435.492 172.816 435.322 172.545 435.119C172.025 434.735 171.528 434.295 171.054 433.798C170.58 433.278 170.196 432.883 169.902 432.612C169.699 432.408 169.575 432.273 169.529 432.205C169.484 432.16 169.439 432.126 169.394 432.104C169.349 432.058 169.303 432.013 169.258 431.968C169.1 431.81 168.931 431.652 168.75 431.494C168.569 431.336 168.389 431.166 168.208 430.985V432.307C168.208 432.555 168.219 432.736 168.242 432.849C168.242 433.075 168.231 433.244 168.208 433.357C168.14 433.606 168.106 433.843 168.106 434.069C168.084 434.182 168.061 434.295 168.039 434.408C168.016 434.498 167.982 434.6 167.937 434.712C167.914 434.758 167.892 434.792 167.869 434.814C167.869 434.837 167.869 434.871 167.869 434.916C167.847 434.961 167.824 434.995 167.801 435.017C167.801 435.04 167.79 435.074 167.767 435.119C167.655 435.345 167.474 435.56 167.225 435.763C166.796 436.011 166.265 436.079 165.633 435.966C165.294 435.898 165.034 435.774 164.854 435.593C164.65 435.458 164.515 435.266 164.447 435.017C164.402 434.904 164.357 434.792 164.311 434.679C164.289 434.543 164.255 434.419 164.21 434.306C164.165 434.193 164.142 434.091 164.142 434.001C164.142 433.888 164.142 433.798 164.142 433.73V414.451C164.142 414.315 164.142 414.18 164.142 414.044C164.142 413.909 164.153 413.773 164.176 413.638C164.199 413.502 164.221 413.378 164.244 413.265C164.289 413.129 164.334 413.005 164.379 412.892C164.47 412.666 164.583 412.486 164.718 412.35C164.831 412.237 164.944 412.158 165.057 412.113C165.192 412.045 165.317 411.989 165.43 411.944C165.543 411.921 165.667 411.91 165.802 411.91C165.96 411.887 166.107 411.876 166.243 411.876C166.559 411.876 166.875 411.966 167.191 412.147C167.485 412.35 167.7 412.61 167.835 412.926C168.016 413.355 168.106 413.773 168.106 414.18C168.129 414.406 168.151 414.756 168.174 415.23C168.197 415.682 168.208 416.021 168.208 416.247V416.382C168.231 417.128 168.242 417.839 168.242 418.517C168.242 419.194 168.242 419.928 168.242 420.719C168.219 421.51 168.208 422.266 168.208 422.989C168.208 423.689 168.208 424.39 168.208 425.09V425.463C168.389 425.282 168.569 425.112 168.75 424.954C168.931 424.796 169.1 424.627 169.258 424.446C169.349 424.378 169.439 424.299 169.529 424.209L169.902 423.836C170.196 423.543 170.58 423.147 171.054 422.65C171.528 422.131 172.025 421.679 172.545 421.295C173.11 420.888 173.652 420.64 174.171 420.55C174.713 420.459 175.165 420.73 175.527 421.363C175.843 421.973 175.865 422.549 175.594 423.091C175.346 423.61 175.018 424.096 174.612 424.548C174.115 425.067 173.742 425.451 173.494 425.7C173.245 425.926 173.064 426.095 172.951 426.208C172.839 426.298 172.759 426.355 172.714 426.377C172.669 426.4 172.59 426.468 172.477 426.581C172.387 426.671 172.217 426.84 171.969 427.089C171.743 427.315 171.382 427.688 170.885 428.207ZM206.652 430.308C206.946 430.963 206.957 431.607 206.686 432.239C206.415 432.849 205.986 433.414 205.398 433.933C204.811 434.453 204.133 434.904 203.365 435.288C202.62 435.672 201.908 435.944 201.231 436.102C200.485 436.26 199.695 436.328 198.859 436.305C198.046 436.305 197.221 436.203 196.386 436C195.572 435.819 194.771 435.548 193.98 435.187C193.212 434.803 192.5 434.34 191.845 433.798C191.055 433.143 190.434 432.363 189.982 431.46C189.553 430.534 189.236 429.551 189.033 428.512C188.83 427.473 188.717 426.434 188.694 425.395C188.694 424.333 188.728 423.339 188.796 422.413C188.864 421.577 189.033 420.708 189.304 419.804C189.575 418.901 189.948 418.02 190.422 417.161C190.919 416.28 191.507 415.467 192.184 414.722C192.884 413.976 193.698 413.344 194.624 412.824C195.324 412.418 196.103 412.147 196.962 412.011C197.843 411.853 198.724 411.819 199.604 411.91C200.508 411.977 201.355 412.169 202.146 412.486C202.959 412.779 203.648 413.186 204.212 413.705C204.574 414.022 204.947 414.462 205.331 415.027C205.737 415.592 206.031 416.168 206.212 416.755C206.392 417.342 206.392 417.896 206.212 418.415C206.053 418.912 205.602 419.251 204.856 419.432C204.54 419.522 204.258 419.544 204.009 419.499C203.761 419.432 203.535 419.33 203.332 419.194C203.128 419.036 202.936 418.856 202.756 418.652C202.575 418.449 202.405 418.246 202.247 418.042C201.705 417.387 201.073 416.947 200.35 416.721C199.627 416.472 198.904 416.416 198.181 416.552C197.481 416.664 196.815 416.958 196.182 417.432C195.572 417.884 195.098 418.472 194.759 419.194C194.398 419.962 194.104 420.809 193.878 421.736C193.675 422.639 193.562 423.565 193.54 424.514C193.517 425.44 193.596 426.344 193.777 427.224C193.98 428.105 194.319 428.885 194.793 429.562C195.155 430.104 195.595 430.545 196.115 430.884C196.657 431.223 197.233 431.46 197.843 431.595C198.452 431.731 199.062 431.753 199.672 431.663C200.305 431.573 200.915 431.369 201.502 431.053C201.683 430.963 201.875 430.839 202.078 430.68C202.304 430.5 202.53 430.319 202.756 430.138C202.981 429.958 203.207 429.788 203.433 429.63C203.682 429.472 203.941 429.359 204.212 429.291C204.619 429.156 205.06 429.167 205.534 429.325C206.031 429.483 206.404 429.811 206.652 430.308ZM214.112 433.289C214.089 433.402 214.066 433.515 214.044 433.628C214.044 433.719 214.044 433.82 214.044 433.933L213.841 434.645C213.795 434.735 213.762 434.792 213.739 434.814L213.637 435.017C213.524 435.266 213.321 435.469 213.027 435.627C212.485 435.898 211.909 435.966 211.299 435.831C210.915 435.785 210.61 435.672 210.385 435.492C210.159 435.334 210.001 435.142 209.91 434.916C209.82 434.69 209.752 434.464 209.707 434.238C209.639 434.012 209.605 433.809 209.605 433.628V414.654C209.605 414.496 209.605 414.36 209.605 414.248C209.628 414.112 209.65 413.988 209.673 413.875C209.696 413.717 209.718 413.581 209.741 413.468C209.786 413.355 209.831 413.231 209.876 413.096C209.944 412.87 210.068 412.689 210.249 412.553C210.52 412.35 210.78 412.237 211.028 412.215C211.186 412.169 211.333 412.147 211.469 412.147C211.604 412.124 211.762 412.113 211.943 412.113C212.259 412.113 212.621 412.203 213.027 412.384C213.344 412.565 213.57 412.813 213.705 413.129C213.931 413.581 214.044 413.999 214.044 414.383C214.066 414.609 214.078 414.948 214.078 415.4C214.1 415.851 214.112 416.19 214.112 416.416V416.552C214.157 417.274 214.179 417.975 214.179 418.652C214.179 419.307 214.168 420.03 214.146 420.821C214.146 421.589 214.134 422.334 214.112 423.057C214.112 423.757 214.112 424.457 214.112 425.158V432.273C214.112 432.363 214.112 432.454 214.112 432.544C214.134 432.612 214.146 432.691 214.146 432.781C214.146 433.007 214.134 433.176 214.112 433.289ZM230.81 427.936C230.765 428.681 230.72 429.438 230.675 430.206C230.63 430.952 230.505 431.674 230.302 432.375C230.121 433.075 229.828 433.707 229.421 434.272C229.037 434.837 228.484 435.288 227.761 435.627C227.128 435.944 226.451 436.158 225.728 436.271C225.005 436.407 224.282 436.463 223.56 436.44C222.837 436.418 222.136 436.305 221.459 436.102C220.781 435.921 220.171 435.661 219.629 435.322C219.087 434.984 218.647 434.543 218.308 434.001C217.969 433.459 217.698 432.872 217.495 432.239C217.314 431.607 217.19 430.952 217.122 430.274C217.054 429.596 217.009 428.964 216.986 428.376C216.896 426.818 216.896 425.282 216.986 423.768C216.986 423.475 216.986 423.147 216.986 422.786C216.986 422.402 217.009 422.029 217.054 421.668C217.122 421.306 217.224 420.979 217.359 420.685C217.495 420.369 217.72 420.132 218.037 419.974C218.714 419.612 219.336 419.59 219.9 419.906C220.488 420.222 220.838 420.877 220.951 421.871C221.018 422.391 221.041 422.967 221.018 423.599C221.018 424.232 221.041 424.808 221.086 425.327C221.109 426.095 221.131 426.931 221.154 427.834C221.176 428.715 221.301 429.506 221.527 430.206C221.775 430.906 222.17 431.437 222.712 431.799C223.277 432.137 224.113 432.149 225.22 431.832C225.739 431.674 226.078 431.279 226.236 430.647C226.417 430.014 226.507 429.077 226.507 427.834C226.507 427.292 226.496 426.694 226.473 426.039C226.451 425.384 226.44 424.74 226.44 424.107C226.44 423.452 226.451 422.854 226.473 422.312C226.519 421.747 226.586 421.318 226.677 421.024C226.79 420.617 227.027 420.312 227.388 420.109C227.75 419.906 228.134 419.804 228.54 419.804C228.947 419.782 229.331 419.861 229.692 420.041C230.054 420.222 230.302 420.516 230.438 420.922C230.573 421.284 230.664 421.747 230.709 422.312C230.776 422.854 230.822 423.452 230.844 424.107C230.867 424.74 230.867 425.395 230.844 426.072C230.844 426.728 230.833 427.349 230.81 427.936ZM233.662 414.586C233.707 413.773 233.956 413.118 234.407 412.621C234.882 412.124 235.548 411.989 236.407 412.215C236.813 412.328 237.107 412.497 237.287 412.723C237.491 412.949 237.626 413.22 237.694 413.536C237.784 413.83 237.83 414.157 237.83 414.519C237.83 414.857 237.83 415.196 237.83 415.535V420.211C237.807 420.392 237.796 420.572 237.796 420.753C237.818 420.911 237.83 421.058 237.83 421.193V421.634H238.677C238.925 421.634 239.162 421.634 239.388 421.634C239.637 421.634 239.851 421.623 240.032 421.6C241.274 421.6 242.336 421.781 243.217 422.142C244.12 422.504 244.843 423.012 245.385 423.667C245.95 424.299 246.357 425.067 246.605 425.971C246.876 426.852 247 427.823 246.978 428.885C246.955 430.15 246.752 431.234 246.368 432.137C245.984 433.041 245.442 433.786 244.742 434.374C244.041 434.961 243.194 435.401 242.2 435.695C241.229 435.966 240.134 436.102 238.914 436.102C237.513 436.102 236.452 436.09 235.729 436.068C235.006 436.045 234.487 435.842 234.17 435.458C233.877 435.074 233.719 434.408 233.696 433.459C233.673 432.51 233.662 431.121 233.662 429.291C233.662 427.529 233.662 425.79 233.662 424.073C233.685 422.357 233.685 420.629 233.662 418.889C233.662 418.664 233.651 418.426 233.628 418.178C233.628 417.929 233.628 417.647 233.628 417.331C233.628 417.015 233.628 416.642 233.628 416.213C233.628 415.761 233.639 415.219 233.662 414.586ZM239.998 432.307C241.24 432.239 242.099 431.9 242.573 431.29C242.822 430.952 243.014 430.545 243.149 430.071C243.285 429.596 243.341 429.122 243.319 428.648C243.296 428.173 243.194 427.721 243.014 427.292C242.855 426.84 242.596 426.468 242.234 426.174C241.918 425.903 241.602 425.711 241.286 425.598C240.969 425.463 240.642 425.384 240.303 425.361C239.964 425.316 239.603 425.304 239.219 425.327C238.835 425.327 238.394 425.338 237.897 425.361V429.427L237.83 432.239C238.055 432.262 238.293 432.284 238.541 432.307C238.97 432.352 239.456 432.352 239.998 432.307ZM277.417 426.14C277.53 426.456 277.609 426.818 277.655 427.224C277.722 427.608 277.756 428.004 277.756 428.41C277.756 428.817 277.722 429.224 277.655 429.63C277.609 430.014 277.542 430.353 277.451 430.647C277.09 431.912 276.367 432.973 275.283 433.832C274.199 434.667 272.956 435.277 271.556 435.661C270.178 436.045 268.744 436.181 267.253 436.068C265.784 435.955 264.474 435.582 263.322 434.95C262.6 434.543 261.978 434.046 261.459 433.459C260.939 432.872 260.499 432.216 260.137 431.494C260.002 431.245 259.912 430.963 259.866 430.647C259.844 430.308 259.878 429.992 259.968 429.698C260.058 429.382 260.205 429.111 260.408 428.885C260.612 428.636 260.894 428.467 261.256 428.376C261.481 428.331 261.73 428.309 262.001 428.309C262.295 428.309 262.577 428.354 262.848 428.444C263.119 428.512 263.368 428.636 263.593 428.817C263.819 428.975 264 429.201 264.136 429.495C264.384 429.969 264.734 430.409 265.186 430.816C265.66 431.2 266.157 431.516 266.677 431.765C267.422 432.013 268.168 432.115 268.913 432.07C269.681 432.024 270.37 431.855 270.98 431.561C271.612 431.268 272.12 430.872 272.504 430.376C272.888 429.856 273.08 429.269 273.08 428.614C273.08 428.072 273.001 427.631 272.843 427.292C272.685 426.931 272.459 426.637 272.166 426.411C271.895 426.163 271.556 425.96 271.149 425.801C270.765 425.643 270.336 425.508 269.862 425.395C269.32 425.282 268.766 425.203 268.201 425.158C267.659 425.112 267.106 425.056 266.541 424.988C265.976 424.92 265.423 424.83 264.881 424.717C264.339 424.604 263.808 424.435 263.288 424.209C262.249 423.78 261.459 423.125 260.917 422.244C260.375 421.363 260.047 420.414 259.934 419.398C259.844 418.381 259.968 417.376 260.307 416.382C260.646 415.366 261.188 414.496 261.933 413.773C262.656 413.118 263.514 412.655 264.508 412.384C265.525 412.09 266.643 411.921 267.863 411.876C268.54 411.853 269.218 411.876 269.896 411.944C270.596 412.011 271.262 412.124 271.895 412.282C272.55 412.44 273.148 412.644 273.69 412.892C274.255 413.141 274.741 413.434 275.147 413.773C275.441 413.999 275.735 414.304 276.028 414.688C276.322 415.049 276.548 415.445 276.706 415.874C276.864 416.28 276.909 416.676 276.841 417.06C276.796 417.444 276.559 417.771 276.13 418.042C275.768 418.268 275.418 418.37 275.08 418.347C274.763 418.302 274.458 418.2 274.165 418.042C273.871 417.862 273.589 417.658 273.318 417.432C273.047 417.207 272.798 417.003 272.572 416.823C271.962 416.371 271.206 416.066 270.302 415.908C269.399 415.75 268.552 415.716 267.761 415.806C267.264 415.874 266.801 415.987 266.372 416.145C265.943 416.303 265.57 416.518 265.254 416.789C264.96 417.06 264.723 417.399 264.542 417.805C264.384 418.189 264.328 418.63 264.373 419.127C264.395 419.488 264.497 419.793 264.678 420.041C264.881 420.29 265.118 420.493 265.389 420.651C265.683 420.809 265.999 420.934 266.338 421.024C266.677 421.114 267.016 421.182 267.354 421.227C268.371 421.363 269.387 421.464 270.404 421.532C271.42 421.6 272.414 421.826 273.385 422.21C274.379 422.594 275.226 423.113 275.927 423.768C276.627 424.424 277.124 425.214 277.417 426.14ZM294.406 427.936C294.361 428.681 294.316 429.438 294.27 430.206C294.225 430.952 294.101 431.674 293.898 432.375C293.717 433.075 293.423 433.707 293.017 434.272C292.633 434.837 292.079 435.288 291.357 435.627C290.724 435.944 290.046 436.158 289.324 436.271C288.601 436.407 287.878 436.463 287.155 436.44C286.432 436.418 285.732 436.305 285.054 436.102C284.377 435.921 283.767 435.661 283.225 435.322C282.683 434.984 282.242 434.543 281.903 434.001C281.565 433.459 281.293 432.872 281.09 432.239C280.909 431.607 280.785 430.952 280.717 430.274C280.65 429.596 280.605 428.964 280.582 428.376C280.492 426.818 280.492 425.282 280.582 423.768C280.582 423.475 280.582 423.147 280.582 422.786C280.582 422.402 280.605 422.029 280.65 421.668C280.717 421.306 280.819 420.979 280.955 420.685C281.09 420.369 281.316 420.132 281.632 419.974C282.31 419.612 282.931 419.59 283.496 419.906C284.083 420.222 284.433 420.877 284.546 421.871C284.614 422.391 284.637 422.967 284.614 423.599C284.614 424.232 284.637 424.808 284.682 425.327C284.704 426.095 284.727 426.931 284.749 427.834C284.772 428.715 284.896 429.506 285.122 430.206C285.371 430.906 285.766 431.437 286.308 431.799C286.873 432.137 287.709 432.149 288.815 431.832C289.335 431.674 289.674 431.279 289.832 430.647C290.013 430.014 290.103 429.077 290.103 427.834C290.103 427.292 290.092 426.694 290.069 426.039C290.046 425.384 290.035 424.74 290.035 424.107C290.035 423.452 290.046 422.854 290.069 422.312C290.114 421.747 290.182 421.318 290.272 421.024C290.385 420.617 290.622 420.312 290.984 420.109C291.345 419.906 291.729 419.804 292.136 419.804C292.542 419.782 292.926 419.861 293.288 420.041C293.649 420.222 293.898 420.516 294.033 420.922C294.169 421.284 294.259 421.747 294.304 422.312C294.372 422.854 294.417 423.452 294.44 424.107C294.462 424.74 294.462 425.395 294.44 426.072C294.44 426.728 294.429 427.349 294.406 427.936ZM316.282 428.105C316.327 428.828 316.35 429.517 316.35 430.172C316.35 430.805 316.327 431.482 316.282 432.205C316.282 432.476 316.282 432.781 316.282 433.12C316.282 433.459 316.259 433.786 316.214 434.103C316.169 434.419 316.09 434.712 315.977 434.984C315.864 435.255 315.695 435.469 315.469 435.627C315.198 435.808 314.893 435.932 314.554 436C314.215 436.045 313.899 436.023 313.605 435.932C313.312 435.842 313.052 435.672 312.826 435.424C312.623 435.176 312.51 434.825 312.487 434.374C312.419 433.335 312.386 432.296 312.386 431.256C312.386 430.737 312.374 430.24 312.352 429.766C312.352 429.291 312.363 428.625 312.386 427.767C312.386 427.337 312.352 426.852 312.284 426.31C312.216 425.745 312.047 425.35 311.776 425.124C311.572 424.943 311.347 424.841 311.098 424.819C310.85 424.774 310.601 424.796 310.353 424.887C310.127 424.977 309.923 425.146 309.743 425.395C309.562 425.621 309.438 425.914 309.37 426.276C309.37 426.569 309.359 426.874 309.336 427.191C309.336 427.484 309.347 427.767 309.37 428.038C309.393 428.76 309.404 429.449 309.404 430.104C309.404 430.737 309.393 431.415 309.37 432.137C309.347 432.431 309.336 432.747 309.336 433.086C309.359 433.425 309.359 433.764 309.336 434.103C309.314 434.419 309.246 434.712 309.133 434.984C309.043 435.255 308.873 435.469 308.625 435.627C308.354 435.808 308.06 435.921 307.744 435.966C307.45 435.989 307.168 435.944 306.897 435.831C306.648 435.695 306.422 435.492 306.219 435.221C306.038 434.95 305.937 434.588 305.914 434.136C305.869 433.617 305.835 433.143 305.812 432.713C305.812 432.262 305.812 431.787 305.812 431.29C305.812 430.771 305.824 430.24 305.846 429.698C305.869 429.133 305.858 428.591 305.812 428.072C305.812 427.913 305.801 427.733 305.779 427.529C305.779 427.304 305.767 427.078 305.745 426.852C305.745 426.626 305.722 426.411 305.677 426.208C305.654 425.982 305.609 425.801 305.541 425.666C305.361 425.35 305.033 425.146 304.559 425.056C304.107 424.966 303.723 425 303.407 425.158C303.091 425.316 302.853 425.519 302.695 425.768C302.537 426.016 302.424 426.287 302.356 426.581C302.289 426.874 302.255 427.191 302.255 427.529C302.255 427.846 302.255 428.151 302.255 428.444C302.255 429.912 302.255 431.189 302.255 432.273C302.277 433.335 302.164 434.193 301.916 434.848C301.803 435.187 301.566 435.447 301.204 435.627C300.866 435.808 300.493 435.898 300.086 435.898C299.702 435.898 299.341 435.808 299.002 435.627C298.663 435.447 298.437 435.164 298.324 434.78C298.257 434.532 298.189 434.182 298.121 433.73C298.076 433.256 298.042 432.736 298.019 432.171C297.997 431.607 297.986 431.042 297.986 430.477C297.986 429.89 297.986 429.359 297.986 428.885V424.006C297.963 423.486 297.952 422.921 297.952 422.312C297.952 421.702 298.042 421.148 298.223 420.651C298.381 420.222 298.629 419.951 298.968 419.838C299.307 419.703 299.657 419.646 300.019 419.669C300.425 419.669 300.741 419.782 300.967 420.008C301.216 420.211 301.396 420.471 301.509 420.787C301.622 421.08 301.69 421.419 301.713 421.803C301.735 422.165 301.758 422.515 301.78 422.854C302.029 422.289 302.323 421.826 302.661 421.464C303.023 421.08 303.531 420.832 304.186 420.719C305.858 420.403 307.19 420.832 308.184 422.007C308.636 421.555 309.212 421.182 309.912 420.888C310.454 420.685 311.008 420.595 311.572 420.617C312.137 420.617 312.668 420.719 313.165 420.922C313.684 421.126 314.147 421.419 314.554 421.803C314.983 422.187 315.322 422.65 315.571 423.192C315.909 423.915 316.101 424.717 316.147 425.598C316.192 426.479 316.237 427.315 316.282 428.105ZM337.425 428.105C337.471 428.828 337.493 429.517 337.493 430.172C337.493 430.805 337.471 431.482 337.425 432.205C337.425 432.476 337.425 432.781 337.425 433.12C337.425 433.459 337.403 433.786 337.358 434.103C337.312 434.419 337.233 434.712 337.12 434.984C337.008 435.255 336.838 435.469 336.612 435.627C336.341 435.808 336.036 435.932 335.697 436C335.359 436.045 335.042 436.023 334.749 435.932C334.455 435.842 334.195 435.672 333.969 435.424C333.766 435.176 333.653 434.825 333.631 434.374C333.563 433.335 333.529 432.296 333.529 431.256C333.529 430.737 333.518 430.24 333.495 429.766C333.495 429.291 333.506 428.625 333.529 427.767C333.529 427.337 333.495 426.852 333.427 426.31C333.36 425.745 333.19 425.35 332.919 425.124C332.716 424.943 332.49 424.841 332.241 424.819C331.993 424.774 331.744 424.796 331.496 424.887C331.27 424.977 331.067 425.146 330.886 425.395C330.705 425.621 330.581 425.914 330.513 426.276C330.513 426.569 330.502 426.874 330.48 427.191C330.48 427.484 330.491 427.767 330.513 428.038C330.536 428.76 330.547 429.449 330.547 430.104C330.547 430.737 330.536 431.415 330.513 432.137C330.491 432.431 330.48 432.747 330.48 433.086C330.502 433.425 330.502 433.764 330.48 434.103C330.457 434.419 330.389 434.712 330.276 434.984C330.186 435.255 330.016 435.469 329.768 435.627C329.497 435.808 329.203 435.921 328.887 435.966C328.593 435.989 328.311 435.944 328.04 435.831C327.792 435.695 327.566 435.492 327.362 435.221C327.182 434.95 327.08 434.588 327.057 434.136C327.012 433.617 326.978 433.143 326.956 432.713C326.956 432.262 326.956 431.787 326.956 431.29C326.956 430.771 326.967 430.24 326.99 429.698C327.012 429.133 327.001 428.591 326.956 428.072C326.956 427.913 326.944 427.733 326.922 427.529C326.922 427.304 326.911 427.078 326.888 426.852C326.888 426.626 326.865 426.411 326.82 426.208C326.798 425.982 326.752 425.801 326.685 425.666C326.504 425.35 326.176 425.146 325.702 425.056C325.25 424.966 324.866 425 324.55 425.158C324.234 425.316 323.997 425.519 323.839 425.768C323.68 426.016 323.568 426.287 323.5 426.581C323.432 426.874 323.398 427.191 323.398 427.529C323.398 427.846 323.398 428.151 323.398 428.444C323.398 429.912 323.398 431.189 323.398 432.273C323.421 433.335 323.308 434.193 323.059 434.848C322.946 435.187 322.709 435.447 322.348 435.627C322.009 435.808 321.636 435.898 321.23 435.898C320.846 435.898 320.484 435.808 320.145 435.627C319.807 435.447 319.581 435.164 319.468 434.78C319.4 434.532 319.332 434.182 319.264 433.73C319.219 433.256 319.185 432.736 319.163 432.171C319.14 431.607 319.129 431.042 319.129 430.477C319.129 429.89 319.129 429.359 319.129 428.885V424.006C319.106 423.486 319.095 422.921 319.095 422.312C319.095 421.702 319.185 421.148 319.366 420.651C319.524 420.222 319.773 419.951 320.112 419.838C320.45 419.703 320.8 419.646 321.162 419.669C321.568 419.669 321.885 419.782 322.111 420.008C322.359 420.211 322.54 420.471 322.653 420.787C322.766 421.08 322.833 421.419 322.856 421.803C322.879 422.165 322.901 422.515 322.924 422.854C323.172 422.289 323.466 421.826 323.805 421.464C324.166 421.08 324.674 420.832 325.329 420.719C327.001 420.403 328.334 420.832 329.328 422.007C329.779 421.555 330.355 421.182 331.056 420.888C331.598 420.685 332.151 420.595 332.716 420.617C333.28 420.617 333.811 420.719 334.308 420.922C334.828 421.126 335.291 421.419 335.697 421.803C336.127 422.187 336.465 422.65 336.714 423.192C337.053 423.915 337.245 424.717 337.29 425.598C337.335 426.479 337.38 427.315 337.425 428.105ZM351.928 431.358C352.199 431.29 352.47 431.245 352.741 431.223C353.035 431.2 353.294 431.234 353.52 431.324C353.769 431.415 353.972 431.573 354.13 431.799C354.288 432.002 354.367 432.296 354.367 432.68C354.367 432.951 354.3 433.21 354.164 433.459C354.029 433.707 353.859 433.933 353.656 434.136C353.453 434.34 353.227 434.52 352.978 434.679C352.73 434.814 352.493 434.927 352.267 435.017C351.612 435.311 350.855 435.537 349.997 435.695C349.161 435.853 348.291 435.91 347.388 435.864C346.168 435.819 344.993 435.582 343.864 435.153C342.757 434.701 341.887 433.967 341.255 432.951C340.668 431.957 340.318 430.85 340.205 429.63C340.092 428.41 340.148 427.258 340.374 426.174C340.622 424.864 341.04 423.802 341.628 422.989C342.238 422.153 342.96 421.487 343.796 420.99C344.813 420.403 345.953 420.098 347.218 420.075C348.483 420.053 349.692 420.301 350.844 420.821C351.612 421.16 352.301 421.623 352.91 422.21C353.52 422.775 353.983 423.464 354.3 424.277C354.39 424.48 354.458 424.728 354.503 425.022C354.571 425.316 354.616 425.632 354.638 425.971C354.661 426.287 354.661 426.603 354.638 426.92C354.616 427.236 354.559 427.518 354.469 427.767C354.334 428.173 354.164 428.489 353.961 428.715C353.758 428.941 353.498 429.111 353.182 429.224C352.865 429.336 352.481 429.416 352.03 429.461C351.6 429.483 351.081 429.506 350.471 429.528C349.929 429.551 349.421 429.562 348.946 429.562C348.472 429.562 347.986 429.562 347.489 429.562C346.992 429.54 346.473 429.528 345.931 429.528C345.411 429.506 344.824 429.483 344.169 429.461C344.101 429.912 344.158 430.308 344.338 430.647C344.542 430.963 344.813 431.234 345.151 431.46C345.49 431.663 345.874 431.821 346.303 431.934C346.733 432.047 347.15 432.115 347.557 432.137C348.325 432.183 349.059 432.126 349.759 431.968C350.46 431.787 351.182 431.584 351.928 431.358ZM350.471 424.785C350.042 424.288 349.59 423.927 349.116 423.701C348.754 423.543 348.37 423.475 347.964 423.497C347.58 423.497 347.207 423.554 346.846 423.667C346.19 423.825 345.637 424.164 345.185 424.683C345.14 424.728 345.061 424.841 344.948 425.022C344.835 425.18 344.722 425.35 344.609 425.53C344.519 425.711 344.451 425.88 344.406 426.039C344.361 426.197 344.383 426.276 344.474 426.276H351.115C351.092 425.96 351.036 425.7 350.945 425.496C350.855 425.271 350.697 425.033 350.471 424.785ZM357.411 424.006C357.411 423.735 357.411 423.43 357.411 423.091C357.411 422.729 357.423 422.368 357.445 422.007C357.468 421.623 357.502 421.261 357.547 420.922C357.615 420.561 357.705 420.245 357.818 419.974C357.999 419.567 358.281 419.296 358.665 419.16C359.049 419.002 359.467 418.935 359.919 418.957C360.393 418.957 360.766 419.036 361.037 419.194C361.308 419.352 361.511 419.567 361.647 419.838C361.782 420.087 361.861 420.38 361.884 420.719C361.929 421.035 361.951 421.374 361.951 421.736C362.155 421.374 362.426 421.08 362.765 420.855C363.126 420.629 363.487 420.448 363.849 420.312C364.21 420.177 364.538 420.087 364.831 420.041C365.125 419.974 365.295 419.94 365.34 419.94C365.904 419.895 366.413 419.883 366.864 419.906C367.339 419.928 367.858 420.03 368.423 420.211C368.784 420.346 369.157 420.538 369.541 420.787C369.925 421.013 370.264 421.284 370.558 421.6C370.851 421.916 371.043 422.266 371.134 422.65C371.247 423.012 371.201 423.396 370.998 423.802C370.682 424.367 370.332 424.649 369.948 424.649C369.564 424.627 369.146 424.559 368.694 424.446C368.446 424.401 368.152 424.299 367.813 424.141C367.474 423.983 367.181 423.881 366.932 423.836C366.164 423.723 365.487 423.78 364.899 424.006C364.312 424.232 363.804 424.503 363.375 424.819C362.878 425.203 362.448 425.643 362.087 426.14V431.019C362.087 431.629 362.076 432.262 362.053 432.917C362.053 433.572 361.963 434.17 361.782 434.712C361.624 435.232 361.342 435.661 360.935 436C360.551 436.316 359.986 436.452 359.241 436.407C358.834 436.384 358.473 436.192 358.157 435.831C357.84 435.447 357.648 435.074 357.581 434.712C357.535 434.374 357.502 433.967 357.479 433.493C357.456 433.018 357.434 432.521 357.411 432.002C357.411 431.482 357.411 430.963 357.411 430.443C357.411 429.901 357.411 429.404 357.411 428.952V424.006ZM383.131 419.736C383.334 418.946 383.594 418.088 383.91 417.161C384.226 416.235 384.565 415.309 384.927 414.383C385.311 413.457 385.683 412.599 386.045 411.808H388.247C388.044 412.666 387.829 413.592 387.603 414.586C387.377 415.558 387.174 416.529 386.993 417.5C386.813 418.449 386.666 419.319 386.553 420.109H383.334L383.131 419.736ZM394 419.499C393.662 420.019 393.255 420.335 392.781 420.448C392.329 420.561 391.888 420.527 391.459 420.346C391.03 420.166 390.669 419.872 390.375 419.465C390.104 419.036 389.991 418.551 390.036 418.008C390.059 417.647 390.149 417.252 390.307 416.823C390.465 416.393 390.657 415.987 390.883 415.603C391.132 415.196 391.392 414.824 391.663 414.485C391.956 414.123 392.25 413.818 392.544 413.57C393.086 413.141 393.696 412.768 394.373 412.452C395.073 412.136 395.796 411.898 396.542 411.74C397.31 411.582 398.066 411.514 398.812 411.537C399.58 411.56 400.291 411.672 400.946 411.876C402.753 412.44 404.154 413.333 405.148 414.552C406.142 415.772 406.639 417.353 406.639 419.296C406.639 420.222 406.548 421.058 406.368 421.803C406.209 422.526 405.916 423.226 405.487 423.904C405.08 424.582 404.527 425.271 403.826 425.971C403.149 426.671 402.302 427.439 401.285 428.275C400.946 428.568 400.596 428.862 400.235 429.156C399.873 429.449 399.512 429.743 399.151 430.037C399.038 430.127 398.823 430.263 398.507 430.443C398.191 430.624 397.908 430.805 397.66 430.985C397.411 431.166 397.264 431.336 397.219 431.494C397.174 431.652 397.355 431.742 397.761 431.765C398.258 431.81 398.654 431.821 398.947 431.799C399.241 431.776 399.636 431.765 400.133 431.765C400.72 431.765 401.296 431.753 401.861 431.731C402.426 431.708 402.991 431.72 403.555 431.765C403.781 431.787 404.03 431.799 404.301 431.799C404.572 431.776 404.843 431.776 405.114 431.799C405.385 431.799 405.645 431.832 405.893 431.9C406.142 431.945 406.356 432.047 406.537 432.205C406.718 432.363 406.853 432.578 406.944 432.849C407.034 433.12 407.079 433.414 407.079 433.73C407.102 434.024 407.079 434.317 407.011 434.611C406.944 434.882 406.831 435.096 406.672 435.255C406.379 435.593 406.017 435.763 405.588 435.763C405.159 435.74 404.752 435.729 404.368 435.729H392.205C391.979 435.729 391.73 435.74 391.459 435.763C391.211 435.785 390.985 435.763 390.782 435.695C390.375 435.582 390.172 435.368 390.172 435.051C390.194 434.735 390.206 434.408 390.206 434.069C390.206 433.504 390.341 432.984 390.612 432.51C390.883 432.013 391.222 431.561 391.629 431.155C392.058 430.726 392.51 430.33 392.984 429.969C393.458 429.608 393.899 429.257 394.305 428.919C394.893 428.399 395.525 427.88 396.203 427.36C396.88 426.84 397.524 426.321 398.134 425.801C398.925 425.146 399.591 424.548 400.133 424.006C400.698 423.464 401.15 422.955 401.488 422.481C401.827 422.007 402.076 421.544 402.234 421.092C402.392 420.617 402.471 420.12 402.471 419.601C402.471 418.449 402.121 417.568 401.421 416.958C400.72 416.326 399.828 416.009 398.744 416.009C397.953 416.009 397.208 416.179 396.508 416.518C395.83 416.856 395.265 417.353 394.814 418.008C394.678 418.257 394.543 418.517 394.407 418.788C394.294 419.036 394.159 419.273 394 419.499ZM411.957 412.316C412.16 412.113 412.42 411.989 412.736 411.944C413.075 411.876 413.47 411.842 413.922 411.842H422.291C422.585 411.842 422.912 411.842 423.274 411.842C423.658 411.819 424.019 411.842 424.358 411.91C424.697 411.977 424.99 412.102 425.239 412.282C425.51 412.44 425.702 412.7 425.815 413.062C425.882 413.288 425.905 413.547 425.882 413.841C425.882 414.135 425.826 414.417 425.713 414.688C425.623 414.936 425.476 415.162 425.273 415.366C425.069 415.546 424.821 415.648 424.527 415.671C423.94 415.784 423.33 415.817 422.698 415.772C422.065 415.704 421.455 415.671 420.868 415.671C420.213 415.671 419.637 415.693 419.14 415.738C418.643 415.784 418.078 415.806 417.446 415.806C417.197 415.806 416.881 415.795 416.497 415.772C416.113 415.75 415.819 415.772 415.616 415.84C415.435 415.885 415.289 415.976 415.176 416.111C415.085 416.247 415.018 416.405 414.972 416.585C414.927 416.744 414.905 416.913 414.905 417.094C414.905 417.274 414.905 417.432 414.905 417.568C414.905 417.952 414.882 418.347 414.837 418.754C414.814 419.138 414.792 419.522 414.769 419.906C414.724 420.425 414.792 420.719 414.972 420.787C415.176 420.832 415.514 420.787 415.989 420.651C416.802 420.448 417.638 420.346 418.496 420.346C419.648 420.346 420.721 420.504 421.715 420.821C422.709 421.114 423.567 421.577 424.29 422.21C425.035 422.82 425.611 423.599 426.018 424.548C426.447 425.474 426.662 426.558 426.662 427.8C426.662 428.026 426.65 428.241 426.628 428.444C426.628 428.648 426.605 428.851 426.56 429.054C426.379 430.477 425.849 431.731 424.968 432.815C424.087 433.899 422.969 434.679 421.613 435.153C420.01 435.763 418.349 436.045 416.633 436C414.916 435.932 413.335 435.435 411.889 434.509C411.482 434.261 411.11 433.967 410.771 433.628C410.432 433.267 410.184 432.86 410.026 432.408C409.845 431.934 409.788 431.448 409.856 430.952C409.946 430.432 410.251 430.048 410.771 429.8C411.155 429.619 411.505 429.562 411.821 429.63C412.16 429.675 412.476 429.788 412.77 429.969C413.064 430.127 413.346 430.33 413.617 430.579C413.911 430.805 414.204 430.997 414.498 431.155C415.018 431.403 415.56 431.618 416.124 431.799C416.689 431.957 417.288 432.036 417.92 432.036C419.321 432.036 420.439 431.663 421.274 430.918C422.133 430.172 422.562 429.167 422.562 427.902C422.562 426.682 422.122 425.734 421.241 425.056C420.36 424.356 419.174 424.006 417.683 424.006C417.299 424.006 416.915 424.028 416.531 424.073C416.147 424.119 415.763 424.198 415.379 424.311C415.018 424.401 414.656 424.503 414.295 424.616C413.956 424.728 413.617 424.808 413.278 424.853C412.939 424.875 412.601 424.841 412.262 424.751C411.946 424.638 411.641 424.401 411.347 424.04C411.053 423.723 410.906 423.339 410.906 422.888C410.906 422.436 410.929 422.018 410.974 421.634C411.019 420.979 411.053 420.324 411.076 419.669C411.098 419.014 411.132 418.359 411.178 417.704C411.223 417.048 411.257 416.405 411.279 415.772C411.324 415.117 411.37 414.462 411.415 413.807C411.437 413.423 411.494 413.118 411.584 412.892C411.674 412.666 411.799 412.474 411.957 412.316Z" fill="#616161"/>
<path d="M126.245 413.672C126.268 413.83 126.279 413.976 126.279 414.112C126.279 414.248 126.279 414.383 126.279 414.519V415.908L126.076 433.493V433.832C126.076 433.967 126.042 434.17 125.974 434.441C125.952 434.554 125.918 434.679 125.872 434.814C125.827 434.927 125.782 435.051 125.737 435.187C125.624 435.458 125.466 435.661 125.263 435.797C125.082 435.977 124.788 436.102 124.382 436.169C123.749 436.305 123.173 436.248 122.654 436C122.36 435.819 122.157 435.593 122.044 435.322C121.999 435.277 121.953 435.209 121.908 435.119C121.908 435.074 121.886 435.006 121.84 434.916C121.795 434.803 121.761 434.69 121.739 434.577C121.716 434.441 121.694 434.306 121.671 434.17C121.671 434.057 121.66 433.944 121.637 433.832C121.637 433.719 121.626 433.606 121.603 433.493C121.558 433.38 121.536 433.289 121.536 433.222C121.536 433.131 121.536 433.03 121.536 432.917C121.581 432.826 121.603 432.657 121.603 432.408L121.637 429.732L121.671 425.463H119.841L112.963 425.496L112.896 433.493V433.832C112.896 433.967 112.862 434.17 112.794 434.441C112.771 434.554 112.737 434.679 112.692 434.814C112.647 434.927 112.602 435.051 112.557 435.187C112.444 435.458 112.286 435.661 112.082 435.797C111.902 435.977 111.608 436.102 111.201 436.169C110.569 436.305 109.993 436.248 109.473 436C109.248 435.864 109.033 435.639 108.83 435.322C108.784 435.232 108.762 435.164 108.762 435.119L108.66 434.916C108.615 434.803 108.581 434.69 108.559 434.577C108.536 434.441 108.513 434.306 108.491 434.17C108.491 434.057 108.48 433.944 108.457 433.832C108.434 433.719 108.412 433.606 108.389 433.493C108.367 433.312 108.367 433.12 108.389 432.917V432.408L108.423 429.732L108.491 424.751C108.513 424.028 108.525 423.283 108.525 422.515C108.525 421.747 108.525 420.956 108.525 420.143C108.502 419.33 108.491 418.607 108.491 417.975C108.513 417.342 108.547 416.631 108.592 415.84V415.704C108.615 415.479 108.626 415.253 108.626 415.027C108.626 414.778 108.638 414.53 108.66 414.281C108.683 414.056 108.717 413.841 108.762 413.638C108.83 413.412 108.92 413.186 109.033 412.96C109.101 412.779 109.191 412.632 109.304 412.52C109.417 412.384 109.552 412.26 109.711 412.147C110.072 411.966 110.433 411.876 110.795 411.876C110.976 411.876 111.134 411.887 111.269 411.91C111.405 411.91 111.54 411.921 111.676 411.944C111.947 411.966 112.207 412.102 112.455 412.35C112.636 412.508 112.76 412.689 112.828 412.892C112.941 413.186 113.008 413.446 113.031 413.672C113.054 413.83 113.065 413.976 113.065 414.112C113.065 414.248 113.065 414.383 113.065 414.519V415.908L112.997 421.498C113.178 421.498 113.381 421.498 113.607 421.498C113.856 421.498 114.138 421.487 114.454 421.464C115.629 421.464 116.792 421.476 117.944 421.498C119.119 421.521 120.35 421.532 121.637 421.532H121.671C121.671 420.516 121.671 419.544 121.671 418.618C121.694 417.692 121.728 416.721 121.773 415.704C121.773 415.479 121.773 415.253 121.773 415.027C121.795 414.778 121.818 414.53 121.84 414.281C121.863 414.056 121.897 413.841 121.942 413.638C122.01 413.412 122.1 413.186 122.213 412.96C122.258 412.779 122.337 412.632 122.45 412.52C122.586 412.384 122.744 412.26 122.925 412.147C123.241 411.966 123.591 411.876 123.975 411.876C124.156 411.876 124.314 411.887 124.449 411.91C124.608 411.91 124.743 411.921 124.856 411.944C125.172 411.989 125.432 412.124 125.635 412.35C125.816 412.463 125.94 412.644 126.008 412.892C126.053 413.028 126.087 413.163 126.11 413.299C126.155 413.412 126.2 413.536 126.245 413.672ZM132.967 421.736C133.644 421.397 134.356 421.16 135.101 421.024C135.847 420.866 136.581 420.832 137.304 420.922C138.049 420.99 138.76 421.182 139.438 421.498C140.116 421.792 140.748 422.221 141.336 422.786C141.923 423.373 142.375 424.017 142.691 424.717C143.007 425.417 143.233 426.197 143.368 427.055C143.459 427.642 143.606 428.184 143.809 428.681C144.012 429.178 144.227 429.675 144.453 430.172C144.701 430.669 144.927 431.166 145.13 431.663C145.356 432.16 145.537 432.68 145.672 433.222C145.785 433.741 145.74 434.249 145.537 434.746C145.356 435.221 144.972 435.514 144.385 435.627C144.046 435.695 143.719 435.672 143.402 435.56C143.109 435.424 142.838 435.243 142.589 435.017C142.341 434.769 142.115 434.509 141.912 434.238C141.731 433.944 141.561 433.673 141.403 433.425C140.884 434.103 140.319 434.633 139.709 435.017C139.099 435.379 138.365 435.616 137.507 435.729C136.784 435.819 136.095 435.842 135.44 435.797C134.785 435.752 134.085 435.627 133.339 435.424C132.368 435.176 131.566 434.746 130.934 434.136C130.324 433.504 129.849 432.781 129.511 431.968C129.194 431.132 129.025 430.24 129.002 429.291C128.98 428.343 129.093 427.405 129.341 426.479C129.657 425.259 130.132 424.265 130.764 423.497C131.397 422.729 132.131 422.142 132.967 421.736ZM133.814 425.7C133.497 426.016 133.249 426.389 133.068 426.818C132.888 427.247 132.775 427.699 132.729 428.173C132.707 428.648 132.752 429.122 132.865 429.596C132.978 430.071 133.159 430.488 133.407 430.85C133.633 431.166 134.017 431.437 134.559 431.663C135.101 431.866 135.666 431.991 136.253 432.036C136.931 432.081 137.518 431.9 138.015 431.494C138.535 431.087 138.919 430.579 139.167 429.969C139.438 429.336 139.562 428.67 139.54 427.97C139.517 427.247 139.325 426.592 138.964 426.005C138.693 425.576 138.331 425.259 137.88 425.056C137.45 424.853 136.987 424.751 136.49 424.751C135.993 424.728 135.496 424.808 135 424.988C134.525 425.146 134.13 425.384 133.814 425.7ZM161.096 422.955C161.276 423.272 161.367 423.61 161.367 423.972C161.389 424.333 161.31 424.672 161.129 424.988C160.926 425.395 160.633 425.677 160.249 425.835C159.887 425.971 159.481 425.982 159.029 425.869C158.825 425.824 158.645 425.745 158.487 425.632C158.329 425.519 158.159 425.406 157.978 425.293C157.82 425.158 157.628 425.033 157.402 424.92C157.199 424.808 156.928 424.728 156.589 424.683C156.25 424.638 155.878 424.638 155.471 424.683C155.087 424.728 154.737 424.819 154.421 424.954C153.924 425.203 153.529 425.587 153.235 426.106C152.941 426.603 152.749 427.145 152.659 427.733C152.569 428.297 152.58 428.873 152.693 429.461C152.828 430.048 153.077 430.545 153.438 430.952C153.709 431.268 154.059 431.528 154.489 431.731C154.94 431.934 155.369 432.058 155.776 432.104C156.16 432.149 156.544 432.149 156.928 432.104C157.312 432.036 157.685 431.945 158.046 431.832C158.317 431.72 158.622 431.573 158.961 431.392C159.3 431.189 159.627 431.064 159.944 431.019C160.35 431.019 160.666 431.132 160.892 431.358C161.118 431.561 161.276 431.821 161.367 432.137C161.457 432.431 161.468 432.747 161.401 433.086C161.355 433.425 161.231 433.719 161.028 433.967C160.757 434.306 160.373 434.633 159.876 434.95C159.379 435.243 158.905 435.458 158.453 435.593C157.911 435.774 157.301 435.876 156.623 435.898C155.968 435.921 155.347 435.898 154.76 435.831C154.489 435.785 154.206 435.729 153.913 435.661C153.619 435.593 153.337 435.514 153.065 435.424C152.072 435.063 151.236 434.554 150.558 433.899C149.903 433.222 149.395 432.465 149.033 431.629C148.695 430.793 148.503 429.901 148.457 428.952C148.412 428.004 148.525 427.066 148.796 426.14C149.045 425.259 149.35 424.514 149.711 423.904C150.095 423.294 150.536 422.797 151.033 422.413C151.552 422.007 152.128 421.69 152.761 421.464C153.393 421.216 154.093 421.001 154.861 420.821C155.652 420.663 156.488 420.663 157.369 420.821C158.249 420.979 159.04 421.272 159.74 421.702C160.282 421.995 160.734 422.413 161.096 422.955ZM170.885 428.207C171.382 428.727 171.743 429.111 171.969 429.359C172.217 429.585 172.387 429.754 172.477 429.867C172.59 429.98 172.669 430.048 172.714 430.071C172.759 430.093 172.839 430.161 172.951 430.274C173.064 430.387 173.245 430.568 173.494 430.816C173.742 431.042 174.115 431.415 174.612 431.934C175.018 432.341 175.346 432.815 175.594 433.357C175.865 433.877 175.843 434.441 175.527 435.051C175.346 435.368 175.143 435.593 174.917 435.729C174.691 435.842 174.442 435.887 174.171 435.864C173.923 435.842 173.652 435.763 173.358 435.627C173.087 435.492 172.816 435.322 172.545 435.119C172.025 434.735 171.528 434.295 171.054 433.798C170.58 433.278 170.196 432.883 169.902 432.612C169.699 432.408 169.575 432.273 169.529 432.205C169.484 432.16 169.439 432.126 169.394 432.104C169.349 432.058 169.303 432.013 169.258 431.968C169.1 431.81 168.931 431.652 168.75 431.494C168.569 431.336 168.389 431.166 168.208 430.985V432.307C168.208 432.555 168.219 432.736 168.242 432.849C168.242 433.075 168.231 433.244 168.208 433.357C168.14 433.606 168.106 433.843 168.106 434.069C168.084 434.182 168.061 434.295 168.039 434.408C168.016 434.498 167.982 434.6 167.937 434.712C167.914 434.758 167.892 434.792 167.869 434.814C167.869 434.837 167.869 434.871 167.869 434.916C167.847 434.961 167.824 434.995 167.801 435.017C167.801 435.04 167.79 435.074 167.767 435.119C167.655 435.345 167.474 435.56 167.225 435.763C166.796 436.011 166.265 436.079 165.633 435.966C165.294 435.898 165.034 435.774 164.854 435.593C164.65 435.458 164.515 435.266 164.447 435.017C164.402 434.904 164.357 434.792 164.311 434.679C164.289 434.543 164.255 434.419 164.21 434.306C164.165 434.193 164.142 434.091 164.142 434.001C164.142 433.888 164.142 433.798 164.142 433.73V414.451C164.142 414.315 164.142 414.18 164.142 414.044C164.142 413.909 164.153 413.773 164.176 413.638C164.199 413.502 164.221 413.378 164.244 413.265C164.289 413.129 164.334 413.005 164.379 412.892C164.47 412.666 164.583 412.486 164.718 412.35C164.831 412.237 164.944 412.158 165.057 412.113C165.192 412.045 165.317 411.989 165.43 411.944C165.543 411.921 165.667 411.91 165.802 411.91C165.96 411.887 166.107 411.876 166.243 411.876C166.559 411.876 166.875 411.966 167.191 412.147C167.485 412.35 167.7 412.61 167.835 412.926C168.016 413.355 168.106 413.773 168.106 414.18C168.129 414.406 168.151 414.756 168.174 415.23C168.197 415.682 168.208 416.021 168.208 416.247V416.382C168.231 417.128 168.242 417.839 168.242 418.517C168.242 419.194 168.242 419.928 168.242 420.719C168.219 421.51 168.208 422.266 168.208 422.989C168.208 423.689 168.208 424.39 168.208 425.09V425.463C168.389 425.282 168.569 425.112 168.75 424.954C168.931 424.796 169.1 424.627 169.258 424.446C169.349 424.378 169.439 424.299 169.529 424.209L169.902 423.836C170.196 423.543 170.58 423.147 171.054 422.65C171.528 422.131 172.025 421.679 172.545 421.295C173.11 420.888 173.652 420.64 174.171 420.55C174.713 420.459 175.165 420.73 175.527 421.363C175.843 421.973 175.865 422.549 175.594 423.091C175.346 423.61 175.018 424.096 174.612 424.548C174.115 425.067 173.742 425.451 173.494 425.7C173.245 425.926 173.064 426.095 172.951 426.208C172.839 426.298 172.759 426.355 172.714 426.377C172.669 426.4 172.59 426.468 172.477 426.581C172.387 426.671 172.217 426.84 171.969 427.089C171.743 427.315 171.382 427.688 170.885 428.207ZM206.652 430.308C206.946 430.963 206.957 431.607 206.686 432.239C206.415 432.849 205.986 433.414 205.398 433.933C204.811 434.453 204.133 434.904 203.365 435.288C202.62 435.672 201.908 435.944 201.231 436.102C200.485 436.26 199.695 436.328 198.859 436.305C198.046 436.305 197.221 436.203 196.386 436C195.572 435.819 194.771 435.548 193.98 435.187C193.212 434.803 192.5 434.34 191.845 433.798C191.055 433.143 190.434 432.363 189.982 431.46C189.553 430.534 189.236 429.551 189.033 428.512C188.83 427.473 188.717 426.434 188.694 425.395C188.694 424.333 188.728 423.339 188.796 422.413C188.864 421.577 189.033 420.708 189.304 419.804C189.575 418.901 189.948 418.02 190.422 417.161C190.919 416.28 191.507 415.467 192.184 414.722C192.884 413.976 193.698 413.344 194.624 412.824C195.324 412.418 196.103 412.147 196.962 412.011C197.843 411.853 198.724 411.819 199.604 411.91C200.508 411.977 201.355 412.169 202.146 412.486C202.959 412.779 203.648 413.186 204.212 413.705C204.574 414.022 204.947 414.462 205.331 415.027C205.737 415.592 206.031 416.168 206.212 416.755C206.392 417.342 206.392 417.896 206.212 418.415C206.053 418.912 205.602 419.251 204.856 419.432C204.54 419.522 204.258 419.544 204.009 419.499C203.761 419.432 203.535 419.33 203.332 419.194C203.128 419.036 202.936 418.856 202.756 418.652C202.575 418.449 202.405 418.246 202.247 418.042C201.705 417.387 201.073 416.947 200.35 416.721C199.627 416.472 198.904 416.416 198.181 416.552C197.481 416.664 196.815 416.958 196.182 417.432C195.572 417.884 195.098 418.472 194.759 419.194C194.398 419.962 194.104 420.809 193.878 421.736C193.675 422.639 193.562 423.565 193.54 424.514C193.517 425.44 193.596 426.344 193.777 427.224C193.98 428.105 194.319 428.885 194.793 429.562C195.155 430.104 195.595 430.545 196.115 430.884C196.657 431.223 197.233 431.46 197.843 431.595C198.452 431.731 199.062 431.753 199.672 431.663C200.305 431.573 200.915 431.369 201.502 431.053C201.683 430.963 201.875 430.839 202.078 430.68C202.304 430.5 202.53 430.319 202.756 430.138C202.981 429.958 203.207 429.788 203.433 429.63C203.682 429.472 203.941 429.359 204.212 429.291C204.619 429.156 205.06 429.167 205.534 429.325C206.031 429.483 206.404 429.811 206.652 430.308ZM214.112 433.289C214.089 433.402 214.066 433.515 214.044 433.628C214.044 433.719 214.044 433.82 214.044 433.933L213.841 434.645C213.795 434.735 213.762 434.792 213.739 434.814L213.637 435.017C213.524 435.266 213.321 435.469 213.027 435.627C212.485 435.898 211.909 435.966 211.299 435.831C210.915 435.785 210.61 435.672 210.385 435.492C210.159 435.334 210.001 435.142 209.91 434.916C209.82 434.69 209.752 434.464 209.707 434.238C209.639 434.012 209.605 433.809 209.605 433.628V414.654C209.605 414.496 209.605 414.36 209.605 414.248C209.628 414.112 209.65 413.988 209.673 413.875C209.696 413.717 209.718 413.581 209.741 413.468C209.786 413.355 209.831 413.231 209.876 413.096C209.944 412.87 210.068 412.689 210.249 412.553C210.52 412.35 210.78 412.237 211.028 412.215C211.186 412.169 211.333 412.147 211.469 412.147C211.604 412.124 211.762 412.113 211.943 412.113C212.259 412.113 212.621 412.203 213.027 412.384C213.344 412.565 213.57 412.813 213.705 413.129C213.931 413.581 214.044 413.999 214.044 414.383C214.066 414.609 214.078 414.948 214.078 415.4C214.1 415.851 214.112 416.19 214.112 416.416V416.552C214.157 417.274 214.179 417.975 214.179 418.652C214.179 419.307 214.168 420.03 214.146 420.821C214.146 421.589 214.134 422.334 214.112 423.057C214.112 423.757 214.112 424.457 214.112 425.158V432.273C214.112 432.363 214.112 432.454 214.112 432.544C214.134 432.612 214.146 432.691 214.146 432.781C214.146 433.007 214.134 433.176 214.112 433.289ZM230.81 427.936C230.765 428.681 230.72 429.438 230.675 430.206C230.63 430.952 230.505 431.674 230.302 432.375C230.121 433.075 229.828 433.707 229.421 434.272C229.037 434.837 228.484 435.288 227.761 435.627C227.128 435.944 226.451 436.158 225.728 436.271C225.005 436.407 224.282 436.463 223.56 436.44C222.837 436.418 222.136 436.305 221.459 436.102C220.781 435.921 220.171 435.661 219.629 435.322C219.087 434.984 218.647 434.543 218.308 434.001C217.969 433.459 217.698 432.872 217.495 432.239C217.314 431.607 217.19 430.952 217.122 430.274C217.054 429.596 217.009 428.964 216.986 428.376C216.896 426.818 216.896 425.282 216.986 423.768C216.986 423.475 216.986 423.147 216.986 422.786C216.986 422.402 217.009 422.029 217.054 421.668C217.122 421.306 217.224 420.979 217.359 420.685C217.495 420.369 217.72 420.132 218.037 419.974C218.714 419.612 219.336 419.59 219.9 419.906C220.488 420.222 220.838 420.877 220.951 421.871C221.018 422.391 221.041 422.967 221.018 423.599C221.018 424.232 221.041 424.808 221.086 425.327C221.109 426.095 221.131 426.931 221.154 427.834C221.176 428.715 221.301 429.506 221.527 430.206C221.775 430.906 222.17 431.437 222.712 431.799C223.277 432.137 224.113 432.149 225.22 431.832C225.739 431.674 226.078 431.279 226.236 430.647C226.417 430.014 226.507 429.077 226.507 427.834C226.507 427.292 226.496 426.694 226.473 426.039C226.451 425.384 226.44 424.74 226.44 424.107C226.44 423.452 226.451 422.854 226.473 422.312C226.519 421.747 226.586 421.318 226.677 421.024C226.79 420.617 227.027 420.312 227.388 420.109C227.75 419.906 228.134 419.804 228.54 419.804C228.947 419.782 229.331 419.861 229.692 420.041C230.054 420.222 230.302 420.516 230.438 420.922C230.573 421.284 230.664 421.747 230.709 422.312C230.776 422.854 230.822 423.452 230.844 424.107C230.867 424.74 230.867 425.395 230.844 426.072C230.844 426.728 230.833 427.349 230.81 427.936ZM233.662 414.586C233.707 413.773 233.956 413.118 234.407 412.621C234.882 412.124 235.548 411.989 236.407 412.215C236.813 412.328 237.107 412.497 237.287 412.723C237.491 412.949 237.626 413.22 237.694 413.536C237.784 413.83 237.83 414.157 237.83 414.519C237.83 414.857 237.83 415.196 237.83 415.535V420.211C237.807 420.392 237.796 420.572 237.796 420.753C237.818 420.911 237.83 421.058 237.83 421.193V421.634H238.677C238.925 421.634 239.162 421.634 239.388 421.634C239.637 421.634 239.851 421.623 240.032 421.6C241.274 421.6 242.336 421.781 243.217 422.142C244.12 422.504 244.843 423.012 245.385 423.667C245.95 424.299 246.357 425.067 246.605 425.971C246.876 426.852 247 427.823 246.978 428.885C246.955 430.15 246.752 431.234 246.368 432.137C245.984 433.041 245.442 433.786 244.742 434.374C244.041 434.961 243.194 435.401 242.2 435.695C241.229 435.966 240.134 436.102 238.914 436.102C237.513 436.102 236.452 436.09 235.729 436.068C235.006 436.045 234.487 435.842 234.17 435.458C233.877 435.074 233.719 434.408 233.696 433.459C233.673 432.51 233.662 431.121 233.662 429.291C233.662 427.529 233.662 425.79 233.662 424.073C233.685 422.357 233.685 420.629 233.662 418.889C233.662 418.664 233.651 418.426 233.628 418.178C233.628 417.929 233.628 417.647 233.628 417.331C233.628 417.015 233.628 416.642 233.628 416.213C233.628 415.761 233.639 415.219 233.662 414.586ZM239.998 432.307C241.24 432.239 242.099 431.9 242.573 431.29C242.822 430.952 243.014 430.545 243.149 430.071C243.285 429.596 243.341 429.122 243.319 428.648C243.296 428.173 243.194 427.721 243.014 427.292C242.855 426.84 242.596 426.468 242.234 426.174C241.918 425.903 241.602 425.711 241.286 425.598C240.969 425.463 240.642 425.384 240.303 425.361C239.964 425.316 239.603 425.304 239.219 425.327C238.835 425.327 238.394 425.338 237.897 425.361V429.427L237.83 432.239C238.055 432.262 238.293 432.284 238.541 432.307C238.97 432.352 239.456 432.352 239.998 432.307ZM277.417 426.14C277.53 426.456 277.609 426.818 277.655 427.224C277.722 427.608 277.756 428.004 277.756 428.41C277.756 428.817 277.722 429.224 277.655 429.63C277.609 430.014 277.542 430.353 277.451 430.647C277.09 431.912 276.367 432.973 275.283 433.832C274.199 434.667 272.956 435.277 271.556 435.661C270.178 436.045 268.744 436.181 267.253 436.068C265.784 435.955 264.474 435.582 263.322 434.95C262.6 434.543 261.978 434.046 261.459 433.459C260.939 432.872 260.499 432.216 260.137 431.494C260.002 431.245 259.912 430.963 259.866 430.647C259.844 430.308 259.878 429.992 259.968 429.698C260.058 429.382 260.205 429.111 260.408 428.885C260.612 428.636 260.894 428.467 261.256 428.376C261.481 428.331 261.73 428.309 262.001 428.309C262.295 428.309 262.577 428.354 262.848 428.444C263.119 428.512 263.368 428.636 263.593 428.817C263.819 428.975 264 429.201 264.136 429.495C264.384 429.969 264.734 430.409 265.186 430.816C265.66 431.2 266.157 431.516 266.677 431.765C267.422 432.013 268.168 432.115 268.913 432.07C269.681 432.024 270.37 431.855 270.98 431.561C271.612 431.268 272.12 430.872 272.504 430.376C272.888 429.856 273.08 429.269 273.08 428.614C273.08 428.072 273.001 427.631 272.843 427.292C272.685 426.931 272.459 426.637 272.166 426.411C271.895 426.163 271.556 425.96 271.149 425.801C270.765 425.643 270.336 425.508 269.862 425.395C269.32 425.282 268.766 425.203 268.201 425.158C267.659 425.112 267.106 425.056 266.541 424.988C265.976 424.92 265.423 424.83 264.881 424.717C264.339 424.604 263.808 424.435 263.288 424.209C262.249 423.78 261.459 423.125 260.917 422.244C260.375 421.363 260.047 420.414 259.934 419.398C259.844 418.381 259.968 417.376 260.307 416.382C260.646 415.366 261.188 414.496 261.933 413.773C262.656 413.118 263.514 412.655 264.508 412.384C265.525 412.09 266.643 411.921 267.863 411.876C268.54 411.853 269.218 411.876 269.896 411.944C270.596 412.011 271.262 412.124 271.895 412.282C272.55 412.44 273.148 412.644 273.69 412.892C274.255 413.141 274.741 413.434 275.147 413.773C275.441 413.999 275.735 414.304 276.028 414.688C276.322 415.049 276.548 415.445 276.706 415.874C276.864 416.28 276.909 416.676 276.841 417.06C276.796 417.444 276.559 417.771 276.13 418.042C275.768 418.268 275.418 418.37 275.08 418.347C274.763 418.302 274.458 418.2 274.165 418.042C273.871 417.862 273.589 417.658 273.318 417.432C273.047 417.207 272.798 417.003 272.572 416.823C271.962 416.371 271.206 416.066 270.302 415.908C269.399 415.75 268.552 415.716 267.761 415.806C267.264 415.874 266.801 415.987 266.372 416.145C265.943 416.303 265.57 416.518 265.254 416.789C264.96 417.06 264.723 417.399 264.542 417.805C264.384 418.189 264.328 418.63 264.373 419.127C264.395 419.488 264.497 419.793 264.678 420.041C264.881 420.29 265.118 420.493 265.389 420.651C265.683 420.809 265.999 420.934 266.338 421.024C266.677 421.114 267.016 421.182 267.354 421.227C268.371 421.363 269.387 421.464 270.404 421.532C271.42 421.6 272.414 421.826 273.385 422.21C274.379 422.594 275.226 423.113 275.927 423.768C276.627 424.424 277.124 425.214 277.417 426.14ZM294.406 427.936C294.361 428.681 294.316 429.438 294.27 430.206C294.225 430.952 294.101 431.674 293.898 432.375C293.717 433.075 293.423 433.707 293.017 434.272C292.633 434.837 292.079 435.288 291.357 435.627C290.724 435.944 290.046 436.158 289.324 436.271C288.601 436.407 287.878 436.463 287.155 436.44C286.432 436.418 285.732 436.305 285.054 436.102C284.377 435.921 283.767 435.661 283.225 435.322C282.683 434.984 282.242 434.543 281.903 434.001C281.565 433.459 281.293 432.872 281.09 432.239C280.909 431.607 280.785 430.952 280.717 430.274C280.65 429.596 280.605 428.964 280.582 428.376C280.492 426.818 280.492 425.282 280.582 423.768C280.582 423.475 280.582 423.147 280.582 422.786C280.582 422.402 280.605 422.029 280.65 421.668C280.717 421.306 280.819 420.979 280.955 420.685C281.09 420.369 281.316 420.132 281.632 419.974C282.31 419.612 282.931 419.59 283.496 419.906C284.083 420.222 284.433 420.877 284.546 421.871C284.614 422.391 284.637 422.967 284.614 423.599C284.614 424.232 284.637 424.808 284.682 425.327C284.704 426.095 284.727 426.931 284.749 427.834C284.772 428.715 284.896 429.506 285.122 430.206C285.371 430.906 285.766 431.437 286.308 431.799C286.873 432.137 287.709 432.149 288.815 431.832C289.335 431.674 289.674 431.279 289.832 430.647C290.013 430.014 290.103 429.077 290.103 427.834C290.103 427.292 290.092 426.694 290.069 426.039C290.046 425.384 290.035 424.74 290.035 424.107C290.035 423.452 290.046 422.854 290.069 422.312C290.114 421.747 290.182 421.318 290.272 421.024C290.385 420.617 290.622 420.312 290.984 420.109C291.345 419.906 291.729 419.804 292.136 419.804C292.542 419.782 292.926 419.861 293.288 420.041C293.649 420.222 293.898 420.516 294.033 420.922C294.169 421.284 294.259 421.747 294.304 422.312C294.372 422.854 294.417 423.452 294.44 424.107C294.462 424.74 294.462 425.395 294.44 426.072C294.44 426.728 294.429 427.349 294.406 427.936ZM316.282 428.105C316.327 428.828 316.35 429.517 316.35 430.172C316.35 430.805 316.327 431.482 316.282 432.205C316.282 432.476 316.282 432.781 316.282 433.12C316.282 433.459 316.259 433.786 316.214 434.103C316.169 434.419 316.09 434.712 315.977 434.984C315.864 435.255 315.695 435.469 315.469 435.627C315.198 435.808 314.893 435.932 314.554 436C314.215 436.045 313.899 436.023 313.605 435.932C313.312 435.842 313.052 435.672 312.826 435.424C312.623 435.176 312.51 434.825 312.487 434.374C312.419 433.335 312.386 432.296 312.386 431.256C312.386 430.737 312.374 430.24 312.352 429.766C312.352 429.291 312.363 428.625 312.386 427.767C312.386 427.337 312.352 426.852 312.284 426.31C312.216 425.745 312.047 425.35 311.776 425.124C311.572 424.943 311.347 424.841 311.098 424.819C310.85 424.774 310.601 424.796 310.353 424.887C310.127 424.977 309.923 425.146 309.743 425.395C309.562 425.621 309.438 425.914 309.37 426.276C309.37 426.569 309.359 426.874 309.336 427.191C309.336 427.484 309.347 427.767 309.37 428.038C309.393 428.76 309.404 429.449 309.404 430.104C309.404 430.737 309.393 431.415 309.37 432.137C309.347 432.431 309.336 432.747 309.336 433.086C309.359 433.425 309.359 433.764 309.336 434.103C309.314 434.419 309.246 434.712 309.133 434.984C309.043 435.255 308.873 435.469 308.625 435.627C308.354 435.808 308.06 435.921 307.744 435.966C307.45 435.989 307.168 435.944 306.897 435.831C306.648 435.695 306.422 435.492 306.219 435.221C306.038 434.95 305.937 434.588 305.914 434.136C305.869 433.617 305.835 433.143 305.812 432.713C305.812 432.262 305.812 431.787 305.812 431.29C305.812 430.771 305.824 430.24 305.846 429.698C305.869 429.133 305.858 428.591 305.812 428.072C305.812 427.913 305.801 427.733 305.779 427.529C305.779 427.304 305.767 427.078 305.745 426.852C305.745 426.626 305.722 426.411 305.677 426.208C305.654 425.982 305.609 425.801 305.541 425.666C305.361 425.35 305.033 425.146 304.559 425.056C304.107 424.966 303.723 425 303.407 425.158C303.091 425.316 302.853 425.519 302.695 425.768C302.537 426.016 302.424 426.287 302.356 426.581C302.289 426.874 302.255 427.191 302.255 427.529C302.255 427.846 302.255 428.151 302.255 428.444C302.255 429.912 302.255 431.189 302.255 432.273C302.277 433.335 302.164 434.193 301.916 434.848C301.803 435.187 301.566 435.447 301.204 435.627C300.866 435.808 300.493 435.898 300.086 435.898C299.702 435.898 299.341 435.808 299.002 435.627C298.663 435.447 298.437 435.164 298.324 434.78C298.257 434.532 298.189 434.182 298.121 433.73C298.076 433.256 298.042 432.736 298.019 432.171C297.997 431.607 297.986 431.042 297.986 430.477C297.986 429.89 297.986 429.359 297.986 428.885V424.006C297.963 423.486 297.952 422.921 297.952 422.312C297.952 421.702 298.042 421.148 298.223 420.651C298.381 420.222 298.629 419.951 298.968 419.838C299.307 419.703 299.657 419.646 300.019 419.669C300.425 419.669 300.741 419.782 300.967 420.008C301.216 420.211 301.396 420.471 301.509 420.787C301.622 421.08 301.69 421.419 301.713 421.803C301.735 422.165 301.758 422.515 301.78 422.854C302.029 422.289 302.323 421.826 302.661 421.464C303.023 421.08 303.531 420.832 304.186 420.719C305.858 420.403 307.19 420.832 308.184 422.007C308.636 421.555 309.212 421.182 309.912 420.888C310.454 420.685 311.008 420.595 311.572 420.617C312.137 420.617 312.668 420.719 313.165 420.922C313.684 421.126 314.147 421.419 314.554 421.803C314.983 422.187 315.322 422.65 315.571 423.192C315.909 423.915 316.101 424.717 316.147 425.598C316.192 426.479 316.237 427.315 316.282 428.105ZM337.425 428.105C337.471 428.828 337.493 429.517 337.493 430.172C337.493 430.805 337.471 431.482 337.425 432.205C337.425 432.476 337.425 432.781 337.425 433.12C337.425 433.459 337.403 433.786 337.358 434.103C337.312 434.419 337.233 434.712 337.12 434.984C337.008 435.255 336.838 435.469 336.612 435.627C336.341 435.808 336.036 435.932 335.697 436C335.359 436.045 335.042 436.023 334.749 435.932C334.455 435.842 334.195 435.672 333.969 435.424C333.766 435.176 333.653 434.825 333.631 434.374C333.563 433.335 333.529 432.296 333.529 431.256C333.529 430.737 333.518 430.24 333.495 429.766C333.495 429.291 333.506 428.625 333.529 427.767C333.529 427.337 333.495 426.852 333.427 426.31C333.36 425.745 333.19 425.35 332.919 425.124C332.716 424.943 332.49 424.841 332.241 424.819C331.993 424.774 331.744 424.796 331.496 424.887C331.27 424.977 331.067 425.146 330.886 425.395C330.705 425.621 330.581 425.914 330.513 426.276C330.513 426.569 330.502 426.874 330.48 427.191C330.48 427.484 330.491 427.767 330.513 428.038C330.536 428.76 330.547 429.449 330.547 430.104C330.547 430.737 330.536 431.415 330.513 432.137C330.491 432.431 330.48 432.747 330.48 433.086C330.502 433.425 330.502 433.764 330.48 434.103C330.457 434.419 330.389 434.712 330.276 434.984C330.186 435.255 330.016 435.469 329.768 435.627C329.497 435.808 329.203 435.921 328.887 435.966C328.593 435.989 328.311 435.944 328.04 435.831C327.792 435.695 327.566 435.492 327.362 435.221C327.182 434.95 327.08 434.588 327.057 434.136C327.012 433.617 326.978 433.143 326.956 432.713C326.956 432.262 326.956 431.787 326.956 431.29C326.956 430.771 326.967 430.24 326.99 429.698C327.012 429.133 327.001 428.591 326.956 428.072C326.956 427.913 326.944 427.733 326.922 427.529C326.922 427.304 326.911 427.078 326.888 426.852C326.888 426.626 326.865 426.411 326.82 426.208C326.798 425.982 326.752 425.801 326.685 425.666C326.504 425.35 326.176 425.146 325.702 425.056C325.25 424.966 324.866 425 324.55 425.158C324.234 425.316 323.997 425.519 323.839 425.768C323.68 426.016 323.568 426.287 323.5 426.581C323.432 426.874 323.398 427.191 323.398 427.529C323.398 427.846 323.398 428.151 323.398 428.444C323.398 429.912 323.398 431.189 323.398 432.273C323.421 433.335 323.308 434.193 323.059 434.848C322.946 435.187 322.709 435.447 322.348 435.627C322.009 435.808 321.636 435.898 321.23 435.898C320.846 435.898 320.484 435.808 320.145 435.627C319.807 435.447 319.581 435.164 319.468 434.78C319.4 434.532 319.332 434.182 319.264 433.73C319.219 433.256 319.185 432.736 319.163 432.171C319.14 431.607 319.129 431.042 319.129 430.477C319.129 429.89 319.129 429.359 319.129 428.885V424.006C319.106 423.486 319.095 422.921 319.095 422.312C319.095 421.702 319.185 421.148 319.366 420.651C319.524 420.222 319.773 419.951 320.112 419.838C320.45 419.703 320.8 419.646 321.162 419.669C321.568 419.669 321.885 419.782 322.111 420.008C322.359 420.211 322.54 420.471 322.653 420.787C322.766 421.08 322.833 421.419 322.856 421.803C322.879 422.165 322.901 422.515 322.924 422.854C323.172 422.289 323.466 421.826 323.805 421.464C324.166 421.08 324.674 420.832 325.329 420.719C327.001 420.403 328.334 420.832 329.328 422.007C329.779 421.555 330.355 421.182 331.056 420.888C331.598 420.685 332.151 420.595 332.716 420.617C333.28 420.617 333.811 420.719 334.308 420.922C334.828 421.126 335.291 421.419 335.697 421.803C336.127 422.187 336.465 422.65 336.714 423.192C337.053 423.915 337.245 424.717 337.29 425.598C337.335 426.479 337.38 427.315 337.425 428.105ZM351.928 431.358C352.199 431.29 352.47 431.245 352.741 431.223C353.035 431.2 353.294 431.234 353.52 431.324C353.769 431.415 353.972 431.573 354.13 431.799C354.288 432.002 354.367 432.296 354.367 432.68C354.367 432.951 354.3 433.21 354.164 433.459C354.029 433.707 353.859 433.933 353.656 434.136C353.453 434.34 353.227 434.52 352.978 434.679C352.73 434.814 352.493 434.927 352.267 435.017C351.612 435.311 350.855 435.537 349.997 435.695C349.161 435.853 348.291 435.91 347.388 435.864C346.168 435.819 344.993 435.582 343.864 435.153C342.757 434.701 341.887 433.967 341.255 432.951C340.668 431.957 340.318 430.85 340.205 429.63C340.092 428.41 340.148 427.258 340.374 426.174C340.622 424.864 341.04 423.802 341.628 422.989C342.238 422.153 342.96 421.487 343.796 420.99C344.813 420.403 345.953 420.098 347.218 420.075C348.483 420.053 349.692 420.301 350.844 420.821C351.612 421.16 352.301 421.623 352.91 422.21C353.52 422.775 353.983 423.464 354.3 424.277C354.39 424.48 354.458 424.728 354.503 425.022C354.571 425.316 354.616 425.632 354.638 425.971C354.661 426.287 354.661 426.603 354.638 426.92C354.616 427.236 354.559 427.518 354.469 427.767C354.334 428.173 354.164 428.489 353.961 428.715C353.758 428.941 353.498 429.111 353.182 429.224C352.865 429.336 352.481 429.416 352.03 429.461C351.6 429.483 351.081 429.506 350.471 429.528C349.929 429.551 349.421 429.562 348.946 429.562C348.472 429.562 347.986 429.562 347.489 429.562C346.992 429.54 346.473 429.528 345.931 429.528C345.411 429.506 344.824 429.483 344.169 429.461C344.101 429.912 344.158 430.308 344.338 430.647C344.542 430.963 344.813 431.234 345.151 431.46C345.49 431.663 345.874 431.821 346.303 431.934C346.733 432.047 347.15 432.115 347.557 432.137C348.325 432.183 349.059 432.126 349.759 431.968C350.46 431.787 351.182 431.584 351.928 431.358ZM350.471 424.785C350.042 424.288 349.59 423.927 349.116 423.701C348.754 423.543 348.37 423.475 347.964 423.497C347.58 423.497 347.207 423.554 346.846 423.667C346.19 423.825 345.637 424.164 345.185 424.683C345.14 424.728 345.061 424.841 344.948 425.022C344.835 425.18 344.722 425.35 344.609 425.53C344.519 425.711 344.451 425.88 344.406 426.039C344.361 426.197 344.383 426.276 344.474 426.276H351.115C351.092 425.96 351.036 425.7 350.945 425.496C350.855 425.271 350.697 425.033 350.471 424.785ZM357.411 424.006C357.411 423.735 357.411 423.43 357.411 423.091C357.411 422.729 357.423 422.368 357.445 422.007C357.468 421.623 357.502 421.261 357.547 420.922C357.615 420.561 357.705 420.245 357.818 419.974C357.999 419.567 358.281 419.296 358.665 419.16C359.049 419.002 359.467 418.935 359.919 418.957C360.393 418.957 360.766 419.036 361.037 419.194C361.308 419.352 361.511 419.567 361.647 419.838C361.782 420.087 361.861 420.38 361.884 420.719C361.929 421.035 361.951 421.374 361.951 421.736C362.155 421.374 362.426 421.08 362.765 420.855C363.126 420.629 363.487 420.448 363.849 420.312C364.21 420.177 364.538 420.087 364.831 420.041C365.125 419.974 365.295 419.94 365.34 419.94C365.904 419.895 366.413 419.883 366.864 419.906C367.339 419.928 367.858 420.03 368.423 420.211C368.784 420.346 369.157 420.538 369.541 420.787C369.925 421.013 370.264 421.284 370.558 421.6C370.851 421.916 371.043 422.266 371.134 422.65C371.247 423.012 371.201 423.396 370.998 423.802C370.682 424.367 370.332 424.649 369.948 424.649C369.564 424.627 369.146 424.559 368.694 424.446C368.446 424.401 368.152 424.299 367.813 424.141C367.474 423.983 367.181 423.881 366.932 423.836C366.164 423.723 365.487 423.78 364.899 424.006C364.312 424.232 363.804 424.503 363.375 424.819C362.878 425.203 362.448 425.643 362.087 426.14V431.019C362.087 431.629 362.076 432.262 362.053 432.917C362.053 433.572 361.963 434.17 361.782 434.712C361.624 435.232 361.342 435.661 360.935 436C360.551 436.316 359.986 436.452 359.241 436.407C358.834 436.384 358.473 436.192 358.157 435.831C357.84 435.447 357.648 435.074 357.581 434.712C357.535 434.374 357.502 433.967 357.479 433.493C357.456 433.018 357.434 432.521 357.411 432.002C357.411 431.482 357.411 430.963 357.411 430.443C357.411 429.901 357.411 429.404 357.411 428.952V424.006ZM383.131 419.736C383.334 418.946 383.594 418.088 383.91 417.161C384.226 416.235 384.565 415.309 384.927 414.383C385.311 413.457 385.683 412.599 386.045 411.808H388.247C388.044 412.666 387.829 413.592 387.603 414.586C387.377 415.558 387.174 416.529 386.993 417.5C386.813 418.449 386.666 419.319 386.553 420.109H383.334L383.131 419.736ZM394 419.499C393.662 420.019 393.255 420.335 392.781 420.448C392.329 420.561 391.888 420.527 391.459 420.346C391.03 420.166 390.669 419.872 390.375 419.465C390.104 419.036 389.991 418.551 390.036 418.008C390.059 417.647 390.149 417.252 390.307 416.823C390.465 416.393 390.657 415.987 390.883 415.603C391.132 415.196 391.392 414.824 391.663 414.485C391.956 414.123 392.25 413.818 392.544 413.57C393.086 413.141 393.696 412.768 394.373 412.452C395.073 412.136 395.796 411.898 396.542 411.74C397.31 411.582 398.066 411.514 398.812 411.537C399.58 411.56 400.291 411.672 400.946 411.876C402.753 412.44 404.154 413.333 405.148 414.552C406.142 415.772 406.639 417.353 406.639 419.296C406.639 420.222 406.548 421.058 406.368 421.803C406.209 422.526 405.916 423.226 405.487 423.904C405.08 424.582 404.527 425.271 403.826 425.971C403.149 426.671 402.302 427.439 401.285 428.275C400.946 428.568 400.596 428.862 400.235 429.156C399.873 429.449 399.512 429.743 399.151 430.037C399.038 430.127 398.823 430.263 398.507 430.443C398.191 430.624 397.908 430.805 397.66 430.985C397.411 431.166 397.264 431.336 397.219 431.494C397.174 431.652 397.355 431.742 397.761 431.765C398.258 431.81 398.654 431.821 398.947 431.799C399.241 431.776 399.636 431.765 400.133 431.765C400.72 431.765 401.296 431.753 401.861 431.731C402.426 431.708 402.991 431.72 403.555 431.765C403.781 431.787 404.03 431.799 404.301 431.799C404.572 431.776 404.843 431.776 405.114 431.799C405.385 431.799 405.645 431.832 405.893 431.9C406.142 431.945 406.356 432.047 406.537 432.205C406.718 432.363 406.853 432.578 406.944 432.849C407.034 433.12 407.079 433.414 407.079 433.73C407.102 434.024 407.079 434.317 407.011 434.611C406.944 434.882 406.831 435.096 406.672 435.255C406.379 435.593 406.017 435.763 405.588 435.763C405.159 435.74 404.752 435.729 404.368 435.729H392.205C391.979 435.729 391.73 435.74 391.459 435.763C391.211 435.785 390.985 435.763 390.782 435.695C390.375 435.582 390.172 435.368 390.172 435.051C390.194 434.735 390.206 434.408 390.206 434.069C390.206 433.504 390.341 432.984 390.612 432.51C390.883 432.013 391.222 431.561 391.629 431.155C392.058 430.726 392.51 430.33 392.984 429.969C393.458 429.608 393.899 429.257 394.305 428.919C394.893 428.399 395.525 427.88 396.203 427.36C396.88 426.84 397.524 426.321 398.134 425.801C398.925 425.146 399.591 424.548 400.133 424.006C400.698 423.464 401.15 422.955 401.488 422.481C401.827 422.007 402.076 421.544 402.234 421.092C402.392 420.617 402.471 420.12 402.471 419.601C402.471 418.449 402.121 417.568 401.421 416.958C400.72 416.326 399.828 416.009 398.744 416.009C397.953 416.009 397.208 416.179 396.508 416.518C395.83 416.856 395.265 417.353 394.814 418.008C394.678 418.257 394.543 418.517 394.407 418.788C394.294 419.036 394.159 419.273 394 419.499ZM411.957 412.316C412.16 412.113 412.42 411.989 412.736 411.944C413.075 411.876 413.47 411.842 413.922 411.842H422.291C422.585 411.842 422.912 411.842 423.274 411.842C423.658 411.819 424.019 411.842 424.358 411.91C424.697 411.977 424.99 412.102 425.239 412.282C425.51 412.44 425.702 412.7 425.815 413.062C425.882 413.288 425.905 413.547 425.882 413.841C425.882 414.135 425.826 414.417 425.713 414.688C425.623 414.936 425.476 415.162 425.273 415.366C425.069 415.546 424.821 415.648 424.527 415.671C423.94 415.784 423.33 415.817 422.698 415.772C422.065 415.704 421.455 415.671 420.868 415.671C420.213 415.671 419.637 415.693 419.14 415.738C418.643 415.784 418.078 415.806 417.446 415.806C417.197 415.806 416.881 415.795 416.497 415.772C416.113 415.75 415.819 415.772 415.616 415.84C415.435 415.885 415.289 415.976 415.176 416.111C415.085 416.247 415.018 416.405 414.972 416.585C414.927 416.744 414.905 416.913 414.905 417.094C414.905 417.274 414.905 417.432 414.905 417.568C414.905 417.952 414.882 418.347 414.837 418.754C414.814 419.138 414.792 419.522 414.769 419.906C414.724 420.425 414.792 420.719 414.972 420.787C415.176 420.832 415.514 420.787 415.989 420.651C416.802 420.448 417.638 420.346 418.496 420.346C419.648 420.346 420.721 420.504 421.715 420.821C422.709 421.114 423.567 421.577 424.29 422.21C425.035 422.82 425.611 423.599 426.018 424.548C426.447 425.474 426.662 426.558 426.662 427.8C426.662 428.026 426.65 428.241 426.628 428.444C426.628 428.648 426.605 428.851 426.56 429.054C426.379 430.477 425.849 431.731 424.968 432.815C424.087 433.899 422.969 434.679 421.613 435.153C420.01 435.763 418.349 436.045 416.633 436C414.916 435.932 413.335 435.435 411.889 434.509C411.482 434.261 411.11 433.967 410.771 433.628C410.432 433.267 410.184 432.86 410.026 432.408C409.845 431.934 409.788 431.448 409.856 430.952C409.946 430.432 410.251 430.048 410.771 429.8C411.155 429.619 411.505 429.562 411.821 429.63C412.16 429.675 412.476 429.788 412.77 429.969C413.064 430.127 413.346 430.33 413.617 430.579C413.911 430.805 414.204 430.997 414.498 431.155C415.018 431.403 415.56 431.618 416.124 431.799C416.689 431.957 417.288 432.036 417.92 432.036C419.321 432.036 420.439 431.663 421.274 430.918C422.133 430.172 422.562 429.167 422.562 427.902C422.562 426.682 422.122 425.734 421.241 425.056C420.36 424.356 419.174 424.006 417.683 424.006C417.299 424.006 416.915 424.028 416.531 424.073C416.147 424.119 415.763 424.198 415.379 424.311C415.018 424.401 414.656 424.503 414.295 424.616C413.956 424.728 413.617 424.808 413.278 424.853C412.939 424.875 412.601 424.841 412.262 424.751C411.946 424.638 411.641 424.401 411.347 424.04C411.053 423.723 410.906 423.339 410.906 422.888C410.906 422.436 410.929 422.018 410.974 421.634C411.019 420.979 411.053 420.324 411.076 419.669C411.098 419.014 411.132 418.359 411.178 417.704C411.223 417.048 411.257 416.405 411.279 415.772C411.324 415.117 411.37 414.462 411.415 413.807C411.437 413.423 411.494 413.118 411.584 412.892C411.674 412.666 411.799 412.474 411.957 412.316Z" fill="#F0A195"/>
<path d="M135.531 118.949C135.749 119.56 135.902 120.258 135.989 121.044C136.12 121.786 136.186 122.55 136.186 123.335C136.186 124.121 136.12 124.906 135.989 125.692C135.902 126.434 135.771 127.089 135.596 127.656C134.898 130.1 133.501 132.152 131.406 133.81C129.311 135.425 126.911 136.603 124.205 137.345C121.543 138.087 118.771 138.349 115.891 138.131C113.054 137.913 110.522 137.193 108.296 135.971C106.9 135.185 105.7 134.225 104.696 133.09C103.692 131.955 102.841 130.689 102.142 129.293C101.881 128.813 101.706 128.267 101.619 127.656C101.575 127.001 101.641 126.39 101.815 125.823C101.99 125.212 102.273 124.688 102.666 124.252C103.059 123.772 103.605 123.444 104.303 123.27C104.739 123.182 105.219 123.139 105.743 123.139C106.311 123.139 106.856 123.226 107.38 123.401C107.904 123.532 108.384 123.772 108.82 124.121C109.257 124.426 109.606 124.863 109.868 125.43C110.348 126.347 111.024 127.198 111.897 127.983C112.814 128.725 113.774 129.336 114.778 129.817C116.218 130.297 117.658 130.493 119.099 130.406C120.582 130.318 121.914 129.991 123.092 129.424C124.314 128.856 125.296 128.093 126.038 127.132C126.78 126.129 127.151 124.994 127.151 123.728C127.151 122.681 126.998 121.83 126.693 121.175C126.387 120.477 125.951 119.909 125.383 119.473C124.86 118.993 124.205 118.6 123.419 118.294C122.677 117.989 121.848 117.727 120.932 117.509C119.884 117.29 118.815 117.138 117.724 117.05C116.676 116.963 115.607 116.854 114.516 116.723C113.425 116.592 112.355 116.418 111.308 116.199C110.26 115.981 109.235 115.654 108.231 115.217C106.223 114.388 104.696 113.122 103.648 111.42C102.601 109.718 101.968 107.885 101.75 105.921C101.575 103.957 101.815 102.015 102.47 100.094C103.124 98.1302 104.172 96.4499 105.612 95.0533C107.009 93.7875 108.667 92.8928 110.588 92.3691C112.552 91.8017 114.712 91.4744 117.069 91.3871C118.378 91.3434 119.688 91.3871 120.997 91.518C122.35 91.6489 123.638 91.8672 124.86 92.1727C126.125 92.4782 127.282 92.871 128.329 93.3511C129.421 93.8312 130.359 94.3986 131.145 95.0533C131.712 95.4897 132.279 96.0789 132.847 96.8209C133.414 97.5192 133.851 98.283 134.156 99.1122C134.462 99.8979 134.549 100.662 134.418 101.404C134.331 102.146 133.872 102.778 133.043 103.302C132.345 103.739 131.668 103.935 131.014 103.891C130.403 103.804 129.813 103.608 129.246 103.302C128.679 102.953 128.133 102.56 127.609 102.124C127.086 101.687 126.606 101.294 126.169 100.945C124.991 100.072 123.529 99.4832 121.783 99.1777C120.037 98.8722 118.4 98.8067 116.873 98.9813C115.912 99.1122 115.018 99.3305 114.188 99.636C113.359 99.9415 112.639 100.356 112.028 100.88C111.461 101.404 111.002 102.058 110.653 102.844C110.348 103.586 110.239 104.437 110.326 105.397C110.37 106.095 110.566 106.685 110.915 107.165C111.308 107.645 111.766 108.038 112.29 108.343C112.857 108.649 113.468 108.889 114.123 109.063C114.778 109.238 115.432 109.369 116.087 109.456C118.051 109.718 120.015 109.914 121.979 110.045C123.943 110.176 125.864 110.613 127.74 111.355C129.661 112.097 131.297 113.1 132.65 114.366C134.003 115.632 134.964 117.159 135.531 118.949ZM165.887 109.129C166.237 109.958 166.258 110.875 165.953 111.878C165.691 112.882 165.189 113.537 164.447 113.842C164.054 114.017 163.531 114.17 162.876 114.301C162.221 114.388 161.501 114.475 160.715 114.563C159.974 114.65 159.232 114.715 158.49 114.759C157.748 114.803 157.115 114.824 156.591 114.824C156.635 116.134 156.678 117.487 156.722 118.883C156.766 120.236 156.809 121.568 156.853 122.877C156.897 124.186 156.918 125.452 156.918 126.674C156.918 127.853 156.897 128.922 156.853 129.882C156.853 130.537 156.853 131.3 156.853 132.173C156.853 133.003 156.787 133.81 156.656 134.596C156.569 135.381 156.416 136.08 156.198 136.691C155.98 137.258 155.653 137.629 155.216 137.804C153.863 138.371 152.619 138.524 151.485 138.262C150.393 138.044 149.608 137.585 149.128 136.887C148.779 136.32 148.517 135.665 148.342 134.923C148.168 134.137 148.037 133.352 147.949 132.566C147.906 131.737 147.884 130.951 147.884 130.209C147.927 129.424 147.949 128.747 147.949 128.18C147.993 126.347 148.015 124.274 148.015 121.96C148.058 119.604 148.08 117.247 148.08 114.89H147.098C146.574 114.89 145.898 114.89 145.069 114.89C144.283 114.846 143.476 114.781 142.646 114.694C141.861 114.563 141.119 114.41 140.421 114.235C139.722 114.017 139.22 113.712 138.915 113.319C138.435 112.751 138.129 112.14 137.998 111.486C137.911 110.831 137.955 110.22 138.129 109.653C138.347 109.041 138.675 108.518 139.111 108.081C139.548 107.601 140.05 107.296 140.617 107.165C141.403 106.947 142.515 106.837 143.956 106.837C145.396 106.794 146.749 106.794 148.015 106.837C147.971 106.401 147.949 105.986 147.949 105.594C147.949 105.157 147.927 104.742 147.884 104.35C147.84 103.826 147.818 103.171 147.818 102.386C147.818 101.556 147.862 100.749 147.949 99.9633C148.08 99.1341 148.277 98.3703 148.539 97.672C148.8 96.93 149.171 96.3626 149.651 95.9698C150.306 95.4461 150.961 95.1624 151.615 95.1187C152.314 95.0314 152.947 95.1187 153.514 95.3806C154.125 95.6425 154.627 96.0353 155.02 96.559C155.456 97.0391 155.762 97.5847 155.936 98.1957C156.067 98.7194 156.176 99.3523 156.264 100.094C156.351 100.793 156.395 101.535 156.395 102.32C156.438 103.106 156.46 103.891 156.46 104.677C156.46 105.463 156.46 106.183 156.46 106.837H157.115C157.769 106.837 158.533 106.816 159.406 106.772C160.279 106.728 161.13 106.75 161.959 106.837C162.832 106.925 163.618 107.143 164.316 107.492C165.015 107.798 165.538 108.343 165.887 109.129ZM176.28 110.438C177.59 109.783 178.965 109.325 180.405 109.063C181.845 108.758 183.264 108.692 184.66 108.867C186.101 108.998 187.475 109.369 188.785 109.98C190.094 110.547 191.316 111.377 192.451 112.468C193.586 113.602 194.459 114.846 195.07 116.199C195.681 117.552 196.117 119.058 196.379 120.717C196.554 121.851 196.837 122.899 197.23 123.859C197.623 124.819 198.037 125.779 198.474 126.74C198.954 127.7 199.39 128.66 199.783 129.62C200.22 130.58 200.569 131.584 200.831 132.632C201.049 133.635 200.962 134.618 200.569 135.578C200.22 136.494 199.478 137.062 198.343 137.28C197.688 137.411 197.055 137.367 196.444 137.149C195.877 136.887 195.353 136.538 194.873 136.101C194.393 135.621 193.957 135.119 193.564 134.596C193.215 134.028 192.887 133.505 192.582 133.024C191.578 134.334 190.487 135.359 189.308 136.101C188.13 136.8 186.712 137.258 185.053 137.476C183.656 137.651 182.325 137.694 181.06 137.607C179.794 137.52 178.441 137.28 177.001 136.887C175.124 136.407 173.574 135.578 172.352 134.399C171.174 133.177 170.257 131.781 169.603 130.209C168.992 128.594 168.664 126.871 168.621 125.037C168.577 123.204 168.795 121.393 169.275 119.604C169.886 117.247 170.803 115.326 172.025 113.842C173.247 112.359 174.666 111.224 176.28 110.438ZM177.917 118.098C177.306 118.709 176.826 119.429 176.477 120.258C176.128 121.088 175.909 121.96 175.822 122.877C175.778 123.794 175.866 124.71 176.084 125.627C176.302 126.543 176.651 127.351 177.131 128.049C177.568 128.66 178.31 129.184 179.357 129.62C180.405 130.013 181.496 130.253 182.631 130.34C183.94 130.428 185.075 130.078 186.035 129.293C187.039 128.507 187.781 127.525 188.261 126.347C188.785 125.125 189.025 123.837 188.981 122.484C188.937 121.088 188.566 119.822 187.868 118.687C187.344 117.858 186.646 117.247 185.773 116.854C184.944 116.461 184.049 116.265 183.089 116.265C182.129 116.221 181.169 116.374 180.208 116.723C179.292 117.029 178.528 117.487 177.917 118.098ZM241.761 122.746C241.848 124.143 241.892 125.474 241.892 126.74C241.892 127.962 241.848 129.271 241.761 130.668C241.761 131.191 241.761 131.781 241.761 132.435C241.761 133.09 241.717 133.723 241.63 134.334C241.543 134.945 241.39 135.512 241.172 136.036C240.953 136.56 240.626 136.974 240.19 137.28C239.666 137.629 239.077 137.869 238.422 138C237.767 138.087 237.156 138.044 236.589 137.869C236.021 137.694 235.52 137.367 235.083 136.887C234.69 136.407 234.472 135.73 234.428 134.858C234.297 132.85 234.232 130.842 234.232 128.835C234.232 127.831 234.21 126.871 234.167 125.954C234.167 125.037 234.188 123.75 234.232 122.091C234.232 121.262 234.167 120.324 234.036 119.276C233.905 118.185 233.577 117.421 233.054 116.985C232.661 116.636 232.224 116.439 231.744 116.396C231.264 116.308 230.784 116.352 230.304 116.527C229.868 116.701 229.475 117.029 229.126 117.509C228.776 117.945 228.536 118.512 228.405 119.211C228.405 119.778 228.384 120.367 228.34 120.978C228.34 121.546 228.362 122.091 228.405 122.615C228.449 124.012 228.471 125.343 228.471 126.609C228.471 127.831 228.449 129.14 228.405 130.537C228.362 131.104 228.34 131.715 228.34 132.37C228.384 133.024 228.384 133.679 228.34 134.334C228.296 134.945 228.165 135.512 227.947 136.036C227.773 136.56 227.445 136.974 226.965 137.28C226.441 137.629 225.874 137.847 225.263 137.935C224.696 137.978 224.15 137.891 223.626 137.673C223.146 137.411 222.71 137.018 222.317 136.494C221.968 135.971 221.771 135.272 221.728 134.399C221.64 133.395 221.575 132.479 221.531 131.65C221.531 130.777 221.531 129.86 221.531 128.9C221.531 127.896 221.553 126.871 221.597 125.823C221.64 124.732 221.619 123.684 221.531 122.681C221.531 122.375 221.509 122.026 221.466 121.633C221.466 121.197 221.444 120.76 221.4 120.324C221.4 119.887 221.357 119.473 221.269 119.08C221.226 118.643 221.138 118.294 221.008 118.032C220.658 117.421 220.026 117.029 219.109 116.854C218.236 116.679 217.494 116.745 216.883 117.05C216.272 117.356 215.814 117.749 215.508 118.229C215.203 118.709 214.985 119.233 214.854 119.8C214.723 120.367 214.657 120.978 214.657 121.633C214.657 122.244 214.657 122.833 214.657 123.401C214.657 126.238 214.657 128.704 214.657 130.799C214.701 132.85 214.483 134.508 214.003 135.774C213.784 136.429 213.326 136.931 212.628 137.28C211.973 137.629 211.253 137.804 210.467 137.804C209.725 137.804 209.027 137.629 208.372 137.28C207.718 136.931 207.281 136.385 207.063 135.643C206.932 135.163 206.801 134.487 206.67 133.614C206.583 132.697 206.517 131.693 206.474 130.602C206.43 129.511 206.408 128.42 206.408 127.329C206.408 126.194 206.408 125.168 206.408 124.252V114.824C206.365 113.821 206.343 112.73 206.343 111.551C206.343 110.373 206.517 109.303 206.867 108.343C207.172 107.514 207.652 106.99 208.307 106.772C208.962 106.51 209.638 106.401 210.336 106.445C211.122 106.445 211.733 106.663 212.169 107.099C212.65 107.492 212.999 107.994 213.217 108.605C213.435 109.172 213.566 109.827 213.61 110.569C213.653 111.267 213.697 111.944 213.741 112.599C214.221 111.507 214.788 110.613 215.443 109.914C216.141 109.172 217.123 108.692 218.389 108.474C221.619 107.863 224.194 108.692 226.114 110.962C226.987 110.089 228.1 109.369 229.453 108.801C230.5 108.409 231.57 108.234 232.661 108.278C233.752 108.278 234.778 108.474 235.738 108.867C236.742 109.26 237.636 109.827 238.422 110.569C239.251 111.311 239.906 112.206 240.386 113.253C241.041 114.65 241.412 116.199 241.499 117.901C241.586 119.604 241.673 121.218 241.761 122.746ZM265.462 108.54C266.727 109.063 267.884 109.827 268.931 110.831C269.979 111.791 270.874 112.904 271.616 114.17C272.401 115.436 272.99 116.81 273.383 118.294C273.82 119.735 274.038 121.197 274.038 122.681C274.081 124.906 273.558 127.001 272.467 128.965C271.419 130.929 269.695 132.435 267.295 133.483C265.462 134.225 263.563 134.792 261.599 135.185C259.679 135.534 257.671 135.774 255.576 135.905V147.886C255.576 148.147 255.532 148.388 255.445 148.606C255.401 148.824 255.38 149.042 255.38 149.26C255.292 149.697 255.183 150.09 255.052 150.439C254.965 150.788 254.834 151.159 254.659 151.552C254.485 151.814 254.31 152.054 254.136 152.272C253.961 152.49 253.765 152.708 253.546 152.927C252.499 153.45 251.408 153.559 250.273 153.254C249.575 153.21 249.007 152.992 248.571 152.599C248.178 152.206 247.894 151.792 247.72 151.355C247.545 150.919 247.393 150.417 247.262 149.85C247.218 149.631 247.174 149.413 247.131 149.195C247.131 149.02 247.131 148.824 247.131 148.606V112.14C247.131 111.878 247.131 111.617 247.131 111.355C247.174 111.049 247.218 110.744 247.262 110.438C247.305 109.914 247.436 109.391 247.654 108.867C248.047 107.776 248.855 107.034 250.077 106.641C251.299 106.248 252.674 106.074 254.201 106.117C255.249 106.161 256.318 106.27 257.409 106.445C258.544 106.619 259.613 106.837 260.617 107.099C261.664 107.318 262.603 107.558 263.432 107.819C264.261 108.081 264.938 108.321 265.462 108.54ZM265.593 122.681C265.767 121.459 265.614 120.433 265.134 119.604C264.698 118.731 264.065 118.032 263.236 117.509C262.406 116.941 261.446 116.505 260.355 116.199C259.308 115.894 258.26 115.676 257.213 115.545C257.082 115.501 256.864 115.479 256.558 115.479C256.296 115.479 255.991 115.479 255.641 115.479C255.641 116.876 255.641 118.229 255.641 119.538C255.685 120.804 255.685 122.179 255.641 123.663V128.049C256.645 128.005 257.693 127.896 258.784 127.722C259.919 127.547 260.966 127.263 261.926 126.871C262.887 126.478 263.694 125.954 264.349 125.299C265.047 124.645 265.462 123.772 265.593 122.681ZM302.005 129.031C302.529 128.9 303.052 128.813 303.576 128.769C304.143 128.725 304.645 128.791 305.082 128.965C305.562 129.14 305.955 129.446 306.26 129.882C306.566 130.275 306.718 130.842 306.718 131.584C306.718 132.108 306.588 132.61 306.326 133.09C306.064 133.57 305.736 134.006 305.344 134.399C304.951 134.792 304.514 135.141 304.034 135.447C303.554 135.709 303.096 135.927 302.659 136.101C301.394 136.669 299.932 137.105 298.273 137.411C296.658 137.716 294.978 137.825 293.232 137.738C290.875 137.651 288.606 137.193 286.424 136.363C284.285 135.49 282.605 134.072 281.382 132.108C280.248 130.188 279.571 128.049 279.353 125.692C279.135 123.335 279.244 121.109 279.68 119.014C280.16 116.483 280.968 114.432 282.103 112.86C283.281 111.246 284.678 109.958 286.293 108.998C288.257 107.863 290.461 107.274 292.905 107.23C295.349 107.187 297.684 107.667 299.91 108.671C301.394 109.325 302.725 110.22 303.903 111.355C305.082 112.446 305.976 113.777 306.588 115.348C306.762 115.741 306.893 116.221 306.98 116.788C307.111 117.356 307.199 117.967 307.242 118.622C307.286 119.233 307.286 119.844 307.242 120.455C307.199 121.066 307.089 121.611 306.915 122.091C306.653 122.877 306.326 123.488 305.933 123.924C305.54 124.361 305.038 124.688 304.427 124.906C303.816 125.125 303.074 125.277 302.201 125.365C301.372 125.408 300.368 125.452 299.19 125.496C298.142 125.539 297.16 125.561 296.244 125.561C295.327 125.561 294.389 125.561 293.429 125.561C292.468 125.518 291.465 125.496 290.417 125.496C289.413 125.452 288.278 125.408 287.013 125.365C286.882 126.238 286.991 127.001 287.34 127.656C287.733 128.267 288.257 128.791 288.911 129.227C289.566 129.62 290.308 129.926 291.137 130.144C291.966 130.362 292.774 130.493 293.559 130.537C295.043 130.624 296.462 130.515 297.815 130.209C299.168 129.86 300.565 129.467 302.005 129.031ZM299.19 116.33C298.36 115.37 297.488 114.672 296.571 114.235C295.873 113.93 295.131 113.799 294.345 113.842C293.603 113.842 292.883 113.952 292.185 114.17C290.919 114.475 289.85 115.13 288.977 116.134C288.889 116.221 288.737 116.439 288.518 116.788C288.3 117.094 288.082 117.421 287.864 117.771C287.689 118.12 287.558 118.447 287.471 118.753C287.384 119.058 287.427 119.211 287.602 119.211H300.434C300.39 118.6 300.281 118.098 300.106 117.705C299.932 117.269 299.626 116.81 299.19 116.33Z" fill="#F0A195"/>
</svg>
