<svg width="348" height="462" viewBox="0 0 348 462" fill="none" xmlns="http://www.w3.org/2000/svg">
<path d="M0 30C0 13.4315 13.4315 0 30 0H318C334.569 0 348 13.4315 348 30V432C348 448.569 334.569 462 318 462H30C13.4315 462 0 448.569 0 432V30Z" fill="#DDC8B3"/>
<path d="M23 54.039C23 39.658 34.658 28 49.039 28H298.961C313.342 28 325 39.658 325 54.039V407.961C325 422.342 313.342 434 298.961 434H49.039C34.658 434 23 422.342 23 407.961V54.039Z" fill="white"/>
<ellipse cx="174.445" cy="243.379" rx="63.5" ry="61" transform="rotate(-146.926 174.445 243.379)" fill="url(#paint0_linear_37_90)"/>
<path d="M233.596 169.817C241.635 161.171 252.032 160.911 252.032 160.911C252.032 160.911 252.691 179.214 245.506 186.996C238.333 194.765 223.116 192.293 223.116 192.293C223.116 192.293 225.509 178.514 233.596 169.817Z" fill="url(#paint1_linear_37_90)"/>
<path d="M200.056 164.057C196.927 149.435 209.449 132.527 209.449 132.527C209.449 132.527 226.131 149.954 224.675 163.274C223.572 173.37 211.545 185.721 211.545 185.721C211.545 185.721 202.608 175.987 200.056 164.057Z" fill="url(#paint2_linear_37_90)"/>
<defs>
<linearGradient id="paint0_linear_37_90" x1="195.835" y1="182.379" x2="153.054" y2="304.379" gradientUnits="userSpaceOnUse">
<stop stop-color="#FFB367"/>
<stop offset="0.901791" stop-color="#F1C394"/>
</linearGradient>
<linearGradient id="paint1_linear_37_90" x1="249.942" y1="159.719" x2="229.343" y2="195.844" gradientUnits="userSpaceOnUse">
<stop stop-color="#99BC85"/>
<stop offset="1" stop-color="#BAD9A9"/>
</linearGradient>
<linearGradient id="paint2_linear_37_90" x1="208.41" y1="132.666" x2="215.462" y2="185.195" gradientUnits="userSpaceOnUse">
<stop stop-color="#99BC85"/>
<stop offset="1" stop-color="#BAD9A9"/>
</linearGradient>
</defs>
</svg>
